<svg xmlns="http://www.w3.org/2000/svg" width="514.145" height="489.932" viewBox="0 0 514.145 489.932">
    <defs>
        <style>
            .cls-1{fill:#fff;stroke:#7abbf5;stroke-width:1.671px}
        </style>
    </defs>
    <g id="chile" transform="rotate(45 280.57 521.638)">
        <path id="CL-AI" d="M36.37 32.167l.2-.045.413-.871-.135-.359-.781-.162-.278.287-.341.054-1.275-.6-.682-.817-.611-.638-1.018-.816-.413-.162-.278.081-.377.431-.242.332-.476.063-.6-.072-.314-.072-.233-.207-.054-.413.189-.934.323-.081.772-.036.252-.117.458-.727-.88-1.32-.368-.781.09-.656.278-.476.377-.171.26-.027.8.18h.4l1.131-.4 2.551-1.435.691-.6 1.554-1.41.5-1.069.377-.97 1.07-2.971.081-1.679-.7.647-1.015.736-1.337-1.024-1.024-.925v-.5l-1.185-.557-.817-.26-.4-.054-.53-.108-.35-.207-1.253-1.323-.09-.557.126-.566.88-.826.934-.8.009-.674.44-.934L34.547 2.4l.332.009.575-.144 1.284-.44-.081-.485.844.018.26.207.8.207 2.47.422.18-.7.422-.629L42.18.3l.42-.3.611.242.063.745.979 1.634.269.117.575.054.377.26.422.539.234.476.1.691 1.787-.2.18-.709 1.8-.88.431-.018.961.449.638.871.027.386-.117.323-1.172 1.82-.413.44-.494 1.39.225.494.081.449-.045 2-.584.427-.135.359.332.494.629.144 1.949.036h1.033l.826-.135 1.015-.036 2.622.53.431.377.674 1.5-.162.6-.3.323-.575.09-.539 1.275.054.449.09.512-.072.53-.664.925-.35.1h-.44l-.386-.126-.332-.171-.6-.458-.368-.26-.26-.063h-.341l-.476.189-.674.359-.26.1-.314.054-.251-.1-.26-.126-.269-.108-.727-.162-.305.144-.233.4-.35.135-1.41-.171-.287-.126-.26-.126-.323-.18-.359-.09-.359.224-.081.368.189 2.057 1.688.368 1.634.153.844.117 2.021.692.431.431.656 1.374 2.155 2.811.4 1.338-2.155 3.125-1.769.817-.3-.018-.26.045-.287.072-.512.2-.485.359-.4 1.751-.135 1.347.483 2.182.377.234.386.126.575.269.26.368.314 1.347-.44.368-.081.045-.268.243-.431.584-.269.44-.251.521-.323.377-.341.153-.4.09-.341.036-.647.305.853.952.44.162.431.215.26.467.072.449.207 2.937.451 1.112.242.88.058 2.12-.081.584-.171.35-1.625 1.545-.467.2-.862.063-.278.3-.479 4.058 1.069 1.518.386.449.126.62-.2.862-.189.269-1.715.835-.814 1.422-.988 1.1-.449.144-.458-.153-.341.009-.467.171-.26.117-.278.171-.189.278-.117.53.224.225.431.3-.269 1.706-.126.413-.171.359-.656 1.042-.314.548-.35.8-1.015 2.892.045.494.207.377.467.521.359.242.548.135 1.087 1.338.278 2.137.108 3.008-1.715 1.1-.826.332-.844.467-.269.188-.224.314-.108.4.305 1.356.081.431.162 1.239.117 1.536v.88l-.117.44-.332.485-1.556 1.536-.359.314-.233.162-.332.189-.377.153-.584.117-.5-.027-.251.072-.458.2-.4.269-.305.386-.907 1.347-1.266 3 .027.413.09.189-.215-.153-3.781-3.26-3.044-2.631-4.418-3.844-.036-.18-.62-.4-.7-.144-.35.018-.467.18-.269.126-.278.117-.467-.036-.736-.97-.332-1.257.573-.833 1.257-1.3.674-.467.656.4 1.32.97.251-.269.081-2.308-1.132-.368-.332-.431-.224-.224-.287-.054-.727-.108.323-.341 1.123-.269-1.859-.709-1.715-1.554-1.158-1.338-1.194-.88-.485-.009-.332-.144-.135-.9.323-.557 1.347-.826 1.428.584.835.665.26.449.18.4.233.718.251 1.616.79.817.386-.117-.98-2.446-.781-1.41-.072-.368.332-.189 1.32-.054 1.572.063.323.233.4.485.718.278 1.347-.018 1.1-.323 2.281 2.056.045.916.458 1.158.18-.709.6-.629.62.054.3.108.332.216.575.036.62-.566.207-.26.1-.521.036-.638-.171-.422-.1 1.024-.243.359-.521.4-.251.054-.332-.144-1.1-.718-1.193-1.371-.845-1.245-.117-1.446h1.069l.108.611.422.557.233.162.278.126.647.18 2.685.162-.557-.476-.889-.278-.44-.018-.332.045-.449.117-.485-.09-.557-.413-2.523-3.116-.377-.952.072-.494.26-.386.4-.4.368-.548-.242-1.248-.629-.674-.584 1.2.494.359.072.422-.552 2.843-.251.278-.314.206-1.518.665-1.033-.207-.242-.126-.323-.8-.4-.072-.629-.027-2.146-.44-1.019-.23-1.1.314-.323.189-.62.108-.916-.144-.35-.126-.862-.449-.35-.566 1.751-2.658.557-.377.26-.045 1.1.117.35.126.7.593.287.97.449 1.2.521.62.449.225.476.063.305-.135-.359.009-.647-.207-.35-.368-.207-.718.53-.907 1.141-.3.673.287h.332l.548-.233-.2-1.518-.88.458-.467.485-1.5.323-.252-.063-2.7-2.838-.144-.35.7-1.266 1.32-1.32.287-.584.18-.413.171-.44 1.607-.26.269.144.126.521.018.647.6 1.23.108.108-.108-.269-.35-1.123v-.476l.126-.629.174-.302.934-.916 1.374-2.155-.979-.979-.287-.126-.287-.027-.251.135-.377.234-.377-.126-1.392-2.146-.225-1.1-.018-.458-.943-.4-3.565.359-.045 1.051.4-.1.521-.018 1.446.44-.153.5-.359.287-.341.018-.808-.1-1.006-.449-3.08-1.473-1.545-.781-.853-1.742-.042-.528.171-.431.691-.88.889-.907-.063-1.243-.287.467-.207.594-1.248 1.363-.485.4-.88.575-2.074.593-.521-.117-.512-.045-.934.3-.835.4-.35.287-.7 1.185.26.287.62-.521 1.4-.961.35.027.341.216.988 3.044-.117.467-.781.557-.692.305-.269.108-.108.018-.126-.018-.781-.26-.942-1.126-.88-1.626L0 55.192.162 53.5l.8-1.194.252-.045.314.027.413.063.593-.314 1.59-1.4-.09-.647.584-.683.305-.278.853-.458.566.53.027.225.054-1.1.2-.9 1.419-1.563.53-.054 1.149.045 1.724-1.886.422-1.024.835-2.452.44-1.5.189-.26 2.784-.35L17.242 38l.431.153.242.638.664-.449 1.374-.216.251.2.323.476.674 2.021-.35 1.931-.189.53-.3.557-.278.3-.216.207.287-.036.808-.664.242-.961-.027-.386-.108-.4.162-.341 1 .979.09.4-.036.53-.171.485-.171.287-.332.368-.638.566-.674.4-.844.4-1.5.449-.4.036-.386-.171-.557-.413-.305-.269-.566-.377 1.069 1.1.287.225.242.153.341.018 1.266-.332 1.015-.3.4-.224.665-.323.305-.063.53 1.7 1.329.88.368.162.117.018.135-.189-.35-.53-.301-.225-.413-.3-1.033-1.248.422-1.015.3-.278.871-.081 1.661 1.886-.054 1.015-.126.683-.188.538-.215.44-.916 1.149-.4.431-1.059 1.619 1.042.8.485.018.359-.215.2-.26.673-1.491.162-.422.287-.988 2.191-2.73.5-1.545 1.365-2.11-.225-.207-1.229 1.741-.521.907-.224.62-.386.781-.341.422-.431.153-.045-.817.09-.377.44-.943.2-.718.153-.781.036-.611-.323-1.1-.26-.808 1.563-3.116 1.3-1.509.243-.26.4-.35.341-.153.26-.036h.646l.709.081.4-.081.269-.287-1.739-.59-.494.054-.548.189-.44.368-.359.674-.18.269-1.024.988-.26.063.126-1.679.709-4.194 1.5-1.41 1.311-.952 1.015-.431.4.377.09.575.4.413.539.467 1.132.835.817.287 1.051.117zm.063-13.255l-.054.072-.629.485-.593.314-.862.925-.135.278-.144.233-.117.126-.853.683-.781.368-.359.126-.458.072-.207-.036-.189-.126-1.352-1.571-.1-.2-.027-.207.09-.171 1.257-.458.225.09.135.108.206.224.539-.126.117-.09-.342-.311-.826-.359-.53.332-.144.171-.135.117-.153.009-.2-.117-.132-.173-.413-.853-.171-.431-.234-1.14.5-.754.108-.135.386-.081.144.027 1.248-.233.162-.826.054-.7-.027-.26.045-.216.251-.7.135-.18.162-.072 1.625-.539 1.145-.277.144.045 1.518 1.239 1.015.359.242.2.557.952.09.207-.036.207-.988 1.446-.117.126-.144.1-.243.054-.808-.081-.144-.108-.171-.2-.674-.251.018.242.117.189.772.53.386.126.512.108.108.278-.18.386-.2.305-.144.126zM6.664 92.54l-.153.108-.305.09-.575-1.383-.188-.934-.279-1.821.036-.305.278-.808-1.293-.772-.817.422-.189.063-.305.072h-.26l-.171-.045-.243-.164-.09-.171-.027-.225.063-.225.251-.216.233-.162.359-.153.458-.036.323-.045.2-.063.251-.135.207-.189.216-.323.153-.305-.171-.054-.593.359-1.688.206L2.2 85.1l-.467-4.158.081-.216.53-.673.368-.287 1.859-.521.225.045.153.18.781 2.461.09.332.09 1.123.458 1.473.305.844.368.422.467.826.664 1.895.144 1.661-.09.359-.108.171-1.455 1.5zm7.382-.144l-1.562-1.123h-.225l-.215.108-.2.063-.242.009-1.491-.314-.826-.476-.18-.153-.072-.189-.207-1.41.054-.359.12-.223.108-.162.916-1.024.207-.117.835-.1.153.036.108.26.269.44.054.26.108.216.566.476.611-.754.036-.207-.162-.234-.126-.081-.368-.081-.44-.835-.1-.224-.153-.718v-.242l.027-.26.548-2.838.117-.3.1-.171.162-.162.153.081.242.341.09.171.054.314v.359l.072.745.153 1.347 1.16 2.09-.26.907v1.114l.063.862.081.332.629.853.18.045.117-.153v-.189l-.072-.189.009-.225.162-.072.135.063.153.117.117.144.027.278-.1.539-.081.341-.108.162-.144.126-.656.413-.234.09-.269.018-.207-.135zM8.9 87.628l-.18-.009-.171-.09L6.736 83.5l-.8-2.434.045-.557.431-.045.826.18 1.491.368.35.189 1.069.871 1.437.368.144.18.027.314-.036.4-.431 2.766-.108.162-.189.072-.359-.018-.665.449-.305.224-.359.3zm16.532-58.874l-.781-.251-.476-.566-.539-.018-.718.189-.224.009-.494-.036-.171-.081-.144-.108-.135-.233-1.15-1.338-.4.215-.862.2-.207-.045-.126-.126-.081-.449-.072-.575.009-.18.09-.368.189-.252.44-.44.171-.144L20 24.1l.3.018.126.072.233.081.584-.054 1-.18.278-.081.476-.305.153-.117.2-.045.278.045.233.081.135.072.781.6.126.126.117.135.1.144.512.835.2.521.018.216-.009.233-.036.494-.359 1.76zm-7.489 50.074l-.476-.252-1.567-.646-.242-.215-.009-.216 1.033-1.149.135-.135.233-.144 1.212-.647.251-.063 2.874.961 1.536.629.341.045.189-.063.386-.332L24 76.5l.135.009.162.108.207.251.054.2-.072.269-.243.718-.243.153-.422.153-.18.018-.476.018-1.374-.009-.252-.036-.3-.117-.18-.1-.278-.054-.171.018-2.065.593zm.7-58.667l-.233-.036-.35-.125-.234-.144-.135-.108-.189-.189-.278-.368-.5-1.1-.009-.224.036-.763.153-.153 1.742-.458.2-.036 1.123.009 2.031.12.431.144.171.081.305.2.126.117.171.2.332.521.072.269-1.814.494-2.164.961-.314.171zM8.316 43.572l-.153-.162-.09-.215-.143-.575.072-.2.144-.108 1.509-.422.18.081-.1-.4-.323-.071-.35.135-.467.036-.207-.054-.117-.26L7.8 39.71l.072-.18.207-.171.278-.081 1.167.467.171.09.215.171.79-.449 1.087-1 .664-.323.3-.045.135.305v.3l-.054.287-.593 2.541-.081.18-.1.162-.341.431-1.365 1.32-.207.108-.907.072-.305-.036-.458-.153-.162-.135zM1.5 92.334l.332-.458.4.081.359-.108.2-.045.341-.18.144-.117.242-.3.072-.26-.117-.117-.233.225-.216.189-.171.09-.269.045H2.4l-.871-.1-.6-.305-.255-.574.242-2.056.377-.683.251-.063 2.721-.26.62.126.072.278.251 2.721-.063.206-.593.539-.287.243-.817.638-.386.269-.171.09-.2.063-.386.045-.458-.036-.251-.1-.1-.09zm14.647-54.59l-.2-.072-.144-.242-.135-.341-.027-.242.108-.216.3-.341.225-.323.009-.7-.126-.772-.126-.575v-.287l.027-.251.063-.332.054-.207.135-.4.171-.35.207-.332.287-.108 1.176.566.216.171.135.171.26.53.126.368.3.943.153.745-.242.673-.108.153-1.976 1.545-.153.1-.709.126zm-5.478 42.727l-.18-.009-.689-.215-.781-.35-.171-.1-.1-.225.189-.377-.26-.225-.341-.081-.341.027-.251.153-.287.35-.216.332-.188.063-.314.063-.44.045-.269-.054-.18-.171.736-1.069.359-.3.153-.108.871-.26.4-.1.251.009 1.149-.79.88-1.248.745-.377.189.135.1.647.018.224.018.709-.027 2.676-.674.512-.126.072zm15.769-43.06l-.117-.018-.224-.135-1.32-1.5-.063-1.931v-.287l.036-.3.072-.2.135-.251.691-1.024.135-.108.26-.045.225.018.934.305.135.207.036.638-.422 3.475-.3.952-.135.189zm-7.974-13.236l-.126-.009-.934-.251-.063-.162.18-.458 1.931-1.868.189-.135.234-.072.233.009 2.308.6.162.153.485.62.09.216-.144.162-.458.278-.269.09-.79.225-.216.018-1.015-.009-.656-.054-.234.072-.153.081zm6.789-5.164L25.082 19l-.808-1.132-.045-1.706.054-.278.189-.171 1.239-.305.216.018.215.108.207.2.4 1.033.485 1.491-.027.189-.144.1-1.392.431zM22.092 4.706l-.341-.4-1.275-.386-.593-.233-.1-.144.26-.961.162-.171.207-.1.772.1.207.054 1.688-.251.71-.629.9 1.015.26.8.072.4-1.149.1-.172-.164-.216-.09-.063-.18.189-.153.126-.162-.189-.135-.341-.045-.745.189-.072.386.153.18.045.2.314.18-.4.5-.215.081-.189.018zm-.1 25.36l-.171-.027-1.521-.584-.135-.171-.287-1.149.287-.377.781-.341.2-.018.18.081.117.135.162.494.117.135.153.1.207.054.224.036.476.018.218-.012.458-.09.359-.054.341.054.171.09.126.117.18.314.117.359.027.341-.135.278-.126.054-.934.009-1.1.036-.485.117zm-6.708 55.56l-.117-.081-.79-1.706-.036-.215-.018-.341-.009-.476.018-.718.44-.646h.216l.251.215.4.4 1.383 1.4.305.62-.521.763-.144.126-1.383.664zM24.9 45.673l-.413-.386-.117-.135-1.533-2.052.009-.305.171-.494.144-.171.18-.063.6-.027.234.027 1.14.5.548.413.18.206.072.314-.09.332-.691 1.374-.18.341-.153.1zm-8.028-30.11l-1.419-.341-.224-.207-.072-.171-.162-.6.081-.26.278-.305.18-.126 2.443-.745.638.215.44.727.144.278-.009.189-.305.108-1.132.287-.862.189-.171.072.153.691zm5.3 21.184h-.117l-.673-.126-.162-.153-.4-1.015-.242-.665-.009-.377.638-.8.422-.26.215-.018.611.323.593.6.26.539.009.287-.108.557-.251.691zM1.4 94.417l-.115-.017-.153-.072-.2-.224-.063-.278.09-1.176.305-.036.575.26.575.144.251.036.207-.045.144-.117.763-.7 1-.88.6.422.18.521.054.207.027.278-.251.377-.215.18-2.209.817-1.565.303zm18.824-60.31l-.063-.117.018-.207.063-.485.063-.278.117-.144.189-.144.009-.386.108-.242.171-.234.126-.233.072-.2.153-.162.189-.027.18.117.171.09.233.027.287-.009.144.054.144.108.117.135.35.171.171.144.171.09.189-.045.314-.251.216-.081.2.153.054.278-.09.368-.135.314-.09.242-.224.377-.072.359-.171.045-.26-.18-.126-.009-.2-.063-.225-.332-.26-.072-.251-.018-.413-.18-.422-.1-.135.045-.207.171-.287.081-.2.207-.135.35-.117.207zm-.4 29.437l-.162-.108-.566-.727-.018-.252.018-.251.413-1.212.117-.207.135-.117.144-.045 1.661.09.727.566-1.042 1.482-.287.305-.144.117-.162.09-.638.225zm4.167-40.689l-.485-.476-.4-.467-.135-.234-.072-.162-.09-1.329.081-.278.2-.233.189-.117.189-.045.278-.018.26.117.126.18.808 2.074.063.548-.072.242-.09.171-.2.171-.251.045-.162-.036-.171-.081zm-5.474 65.222l-.18-.269-.135-.126-.233-.171-.9-.6-.269-.144-.647-.252-.18-.153-.189-.269-.054-.2 1.652-1.257.216-.108.171-.018.278.072.18.216-.009.314-.18.548-.009.233.153.3.368.566.242.278.269.207.18.189-.063.26-.144.126-.359.225zm-5.478-51.2L13 36.675l-.009-.341.045-.225.234-.961.081-.18.09-.171.171-.216.135-.108.162-.09.718-.341.305.009.144.117.054.189-.171 1.733-.386.961-.173.149-.153.1-.247.048-.171-.018-.656-.153-.126-.126-.009-.171zm10.13 4.706l-.144-.054-.117-.189-.2-.584-.018-.278.117-.287.081-.171.35-.557.2-.242 1.868-1.113.18.036.162.278.063.18.063.3.054.934-.2-.135-.117-.135-.207-.045-.539.054-.251.108-.233.862-.413.8-.7.242zM6.888 76.053l.054-.323-.036-.216-.117-.144-.548-.207-.233-.045-.26-.027-.225-.063-.152-.228.485-.521 1.589-.88.225.108.386.521.162.35.233.754-.063.287-.189.323-.117.144-.171.162-.368.207-.88.171.224-.377zm14.817-35.759l-.593-1.41-.305-.539-.153-.458.144-.323.108-.144.467-.4.18-.045.88.314.036.62-.045 1.347-.063.269-.18.467-.4.278-.081.018zM17.081 21.1l-.233-.036-.79-.5-.79-1.248-.018-.26.135-.216.144-.1.763-.251.251.117L18 20.69l-.009.189-.808.207zm-.036 9.7l-1.2-.718-.135-.108-.189-.189-.233-.323-.054-.189.09-.251.171-.171.26-.1.207-.027.224-.009h.575l.251.081.171.153.216.278.153.278.485 1.212-.135.144-.216.09-.251.054-.323-.1-.063-.108zm4.382-15.114l-.314-.072-.4-.117-.251-.135-.117-.126-.063-.234.063-1.266 1.329.189.332.063.26.117.135.108.135.171.081.216.072.278.027.323-.054.269-.18.126zm11.234-9.4l-.377-.081-.984-.494-.153-.242-.072-.341.036-.287.215-.467.162-.215.844-.458.251-.045.162.036.135.108.1.135.036.305-.189 1.877-.162.171zm-10.749 5.379l-.224-.018-.153-.072-.494-.431-.216-.3-.413-1.536.781-.862.189.045.8.961.449.575-.736.269-.045.278.009.225.054.862zm4.481-3.457l-.9-1.616-.368-.871-.009-.287.072-.278.171-.323.108-.135.287.009.916 1.248.278 1.239-.072.467-.359.449-.126.1zm-9.941 80.974l-.26-.638-.638-1.167-.063-.189-.018-.207.224-.242.207.009.332.153.952.548.638.44.225.18.108.215-.018.216-.171.162-.251.135-.691.35-.323.135-.162-.027-.09-.072zm1.257-60.176l-.665-.539-.2-.18-.117-.135-.1-.2.018-.278.18-.952.162-.314.332-.027.171.09 1.033.97-.386 1.589-.137.111-.162-.036zm-1.67-10.785l-.485-.027-1.589.009-.584-.3.009-.234.072-.18.512-.539.189-.117.251-.045.18.009.323.063.961.216.207.108.1.862zm.018 45.062l-.305-.647v-.665l.1-.162.772-.431.189-.063.431-.054.386.036.278.072.108.144-.036.278-.117.359-.108.162-1.41 1.167-.207.126-.108-.205.027-.117zM8.136 22.307l-.125-.007-.189-.126-.422-1.25-.054-.18-.027-.2.036-.233.135-.243.278-.386.3-.081.189.126.691 1.158v.826l-.593.557zm14.288-8.819l-1.329-.709-.189-.207-.26-1.006.225-.09 2.021.638.063 1.464-.081.171-.251-.063zm-4.58 2.622l-.108-.027-.144-.126-.189-.242-.1-.2-.003-.215.081-.171.9-.422 1.269-.107.683.961-.647.18-1.742.368zm3.314 72.416l-.108-.009-.269-.171-1.087-.746-.772-.79-.117-.305.081-.269.26-.1.233-.009.135.009.278.072 1.239.862.153.117.126.2.054.207-.207.934zm4.822-46.194l-.126-.009-1.239-.35-.314-.242-.1-.234.018-.251.611-1.2.18-.135.144-.045.566.548.368 1.814-.108.108zm-.045-21.642l-.449-.278-.242-.2-.1-.727.09-.251 1.437-.368h.18l.171.144.036.2-.2 1.329-.225.242-.242.054-.323-.054-.135-.09zM23.708 9.3l-.979-.189-.44-.135-.18-.135-.117-.135-.081-.153-.054-.224.476-.494.332-.269.278-.054.135.054.548.386.566.718-.09.332-.081.171-.144.072zm-2.245 11.776l-.323-.027-1.32-.549-.18-.206.234-.162.718-.108.386-.081.18-.063.314-.171.225-.153.234-.063.512.126.117.216-.081.709-.144.171-.153.09-.458.207zm-12.2 54l-.108-.009-.5-.422-.105-.155-.305-1.1.135-.126.3-.009 1.042.224.126.072.234.287.287.485.072.224-.144.26-.5.2-.521.072zm2.694-57.06l-.126-.072-.26-.413-.054-.18-.063-.4-.009-.332.027-.7.09-.233.117-.135h.189l.683.413.117.189.045.251-.018.242-.18 1.087-.3.2-.153.081-.108.009zm11.06 13.45l-.907-.266-.341-.117-.069-.173.072-.243.18-.135.575-.207.26-.036 1.3.027.162.09.036.26-.029.334-.9.449-.144.027zm.826-19.694l-1.266-.242-.153-.18-.063-.611 1.976-.189.207.063.1.656-.027.269-.18.126-.189.045-.3.054-.108.009zm10.4-10.7l.557-.39.638-.126.485.512.323.126.216.018-.189.18-.808.072-1.221-.4z" class="cls-1" transform="translate(0 392.26)"/>
        <path id="CL-MA" d="M31.525 69.1l-.287-.027-.43-.126-.439-1.123-.224-2.308-.09-2.254L29.8 61.5l-.2-.494-.583-.656.126.485.395 1.087.143 1.042.655 6.789-.117.718-.377.216-.412-.234-2.5-2.128-.247-.325-.188-.611.054-.79-.395-1.356-.547-1.509.637-.4.134.485 1.031 2.236.968 1.59.412-.144-.989-2.179-1.4-3.206.484-.234.412-.287.574-.754-1.847.53-1.079 1.429-.789-1.545-.368-1.446-.816-.207-.646-.233-.3-3.844.054-.485.251-.682 1.166.368 1.309 1.509.35.817.655 1.643.17.907.17-.117.081-.53L25 55.21l-1.076-4.05.511-.35.484.763.135.575-.26-2.236-.287-.332-.314.206-1.237 1.491-.314.243-.26.072-2.34-.682-.574-.458-.3-2.29-.778-.562-.3-.233-.143-2.164.3-.512.556-.413.529-.207 2.932-.009.287.2.439.727.914-2.541-.018-2.056.377-.539 1.094-.341h.412l.735.5.17.629.377.269.385-.889-.78-.79-.61-.117-.52-.162-.852-.979-.036-.449.242-.467.3-.1.43-.1.332-.216.224-.269.4-1.688-2.367 2.344-.206.431-.313 1.281-.359 1.706.108.494.081.575-.134.368-1.346 1.312-.242.135-1.228-.144-.968-1.141-.52-1.311-.915-2.056-.717-2.47.959-.332 1.166.449.323.233.287.278.3.251.377.189 1.659.269-.637-.449-.646-.216-1.085-.808-.556-.682-2.188-.2-2.322-1.661-2.744-2.775-.054-.593.3-.521.448-.521.628-.449 1.2-.4.753.26 1.067-.126.708.916.26.638.879 1.015 3.066 1.4.816.171.233.009.179-.162-3.38-1.607-.278.018-.3-.135-.395-.431-2.08-3.745.126-.817.3-.458.879.117.6.189 1.24 1.378 2.986 1.239.045-.593-.17-.557-1.381-.611-1.148-.494-2.528-1.32-.35-.521-.3-1.32 1.309-.754.672-.242.619-.108.395.153.52-.126.126-.611-1.623.234-1.13.305-.251-.072-.287-.817-.081-1 .081-.476 1-1.015 1.677-.575.3-.09 1.784.431.224.422.278 1.123.341.584.466.234.377.117.834.862.332 1.167.143-.629-.26-.889-.314-.745-.242-.233-.972-.091-.323-1.347.045-1.123-.52-.377-.968.126-1.327-.44-.206-.269-.146-1.352.493-2.658.188-.3.394.009.466.422.152.4.269.431.646.386.394.126.493-.135-.574-.341-.4-.1-.233-.18-.717-1.185-.386-3.143.152-.377.4-.548.224-.242.3-.153.4-.018.368.251.251.278.439.054-.036-.431-.789-.422-1.919.215-.1.8.138 1.761-.852 1.59-.529 1.643-.125 1.087-.439 2.667-.278.413-.3.054-.323-.224-1.39-1.877-.3-1.67-.027-3.52.045-3.852-.2-.647-.269-.62-.224-.979v-.607l.135-.422.78-1.284.52.35.386.144.3-.072.5-.386.395-.135 1.049.1.843.332 4.411 3.843 3.04 2.631 3.775 3.26.215.153 1.031.287-.628.718-3.658.108-.529.036-.943 2.579-.538 1.913.17.359.681.907.879 3.655-.251.359-.457.431-.35.431-.322 1.745.5.557.314.3.251.359-.054.6-.35.485-.3.62-.143.647.179.566 1.1.853 1.112.9.215.269.188.35.511 1.221.143.539.215 2.892.26 1.958.672 2.847.233.386.269.225.359.054.323-.081.4-.144.439-.242.439-.4.744-1.015.251-.233.421-.26 1.363-.673h.368l.359.341.224.305.251.224.412.162.412-.054.251-.189.287-.566.278-.35.314-.162.341-.054 1.542.224.977.772-.081.494-.484 1.087.054.494.4.494.287.4.332.629.144.458-.3 3.152-.206.4-.663.081-.78 1.5.242 1.033.3.431.323.243.457.251.52.682-.17.557-.377.4-.242.548-.018.979.045.808-.458 1.746-.278.287-.395.3 1.417 3.745.394.225.637.108.341.162.26.171.323.242.61.5 1.631 1.86.224.548v.683l.4 1.688 2.753.027 5.882.009h10.189l4.133-.027h1.426l.708.3 2.26 1.033 3.882 1.724 2.215.009.691-.009 2.564 1.069.529.234.708.512 1.363 1.024 1.291.216 1 .153.932.171 1.784.485-.072 1.024-.466-.916-.395-.18-2.174-.377-1.524-.081-.26.027-1.578-.305-.511-.207-.26-.18-.52-.476-.314-.26-.619-.386-.448-.207-.457-.045-.287-.009-.735.072-2.251 1.017-.323.251-.161.35-.036.593-.063 1.446-.852 1.428-.314.413-.664.665-.224.323-.3.207-1.352-.207-.368-.368-1.318.3-2.9 1.284-.377.2-4.151 2.505-.4.036-1.99.252-1.623.3-.4 3.08.17.6.242.278-.009 1.545-.986 2.9-.242.431-.278.323-.206.458-.117.638-.474 3.609.018.692.045.521.143.709.2.548.17.7.1.611.063.8-.063.683-.448 2.748-.269.557-.628.79-2.394 1.122-.637.243-2.143-1.1-.386-.117-.547-.072-.583-.045h-.287l-.511-.063-.825-.251-1.973-1.464-1.04-.278-1.47-.449-.825-.458-2.206-2.3-.762-1.14-.61-1-.3-.566-.412-1.087.377-1.814 1.775-1.581 2.188.269.368 1 .081.485-.054.781-.17.512-.816.557-.888.476.493.207 1.067-.323.439-.287.744-.557.081-.449-.072-.7-.116-.871-.036-.458.117-.682.3-.4h1.578l.377.458.646 3.951-.152.521-.251.26-.4.341-1.2.691-.35.153-.448.323-.009.62.117.108.628-.4 1.515-.584.394-.26.538-1.078-.072-1.41-.17-1.033.081-1.311.368-1.518 3.335-1.751.386.036.341-.009.395-.108.269-.162.26-.2.242-.269 2.555-4.472.135-.53-.619-1.122-1.121-.332-1.219-.081-3.246 1.778-2.708 1.733-1.049.88-.206.575-1.336 2.074-.717.207-.368-.027-.466-.314-.269-.35-.26-.494-.233-.413-.251-.26-1.049-.368-2.726.7-.359.422 1.031-.135 1.273.009 1.964 1.7.269.557-.152.4-1.784.548-.412-.09-.493-.44-.923-.287-.619.323.323.557.466.207.269.009.395.207-1.255 2.47-.4.171-.664-.216-.377-.53-.224-.26.108.808 1.067 1.257.35-.314.368-.081 1.3 1.994.188.53-.224.4-1.228.2-.134.009-.35-.422-2.509-2.074-1.7-.961-.977-.692-.287-.4-1.345-1.1-.26-.117-.386-.018-.323-.126-.87-.826-1.1-1.572 2.842.18 1-.215.681.108 1.225 1.015.906 1.527.287.3.556-.072.206-1.114-.717-.647-.529-.584.439-.88.574.135h.726l-.61-.431-.87-.171-.359.108-.323.377-.332.108-1.1-.961.332-.4.152-.215.278-.961-.52-.718-.386-1.239-.11-1.669.538-.692 2.5-1.652 1.739 1.069 1.488.494.574-.162 1.515-1.3 1.506-1.778.179-.413 2.089-.305 1.434 1.033.61.144.708.045.932-.036.493-.063.368-.054.421-.144 1.82-.907-.547-1.3-.323-.26-.5-.018-.314.108-.395-.009-1.65-.269-1.9-.431-2.72-.35-1.856.09-.448.1-.412.53-.323.79-.655 1.482-1.6-1.365.61-.9.35-.26.395.027.574-.305-.269-.359-1.372.449-.269.234-1.076.135-2.044-.009-1.39 1.733.224.26.915-.6 1.641.629.036.485-.968 1.419-.574.584-.843.745-.771.162-.323.1-.377.494-.314.548.412 1.311.341 1.419-.045.916-.376.817-1.345.485-.081.072-.421.234-1 .1-1.47-.62-1.668-1.589L29.92 86.9l.98-1.04-1.56-.225-2.54-1.625.646-.521 1.184.09.314.359 2-.242-.269-.656-.045-.8 1.982-4.427.538-.305 1.094.207.672.206.386.1-.35-.485-1.21-.269-.394-.054-.377.036-.968.2-.341.35.188 1.114-.108.4-1.219 1.9-.484.018-.3-.207-.1-.422-.039-.912-.35-.207-.314.135-1.436 1.249-.717.745-.466.79-.206.422-1.049-.5.135-2.577.681-.853.511-.153.341.171.161-.359-.61-.2-.224-.4-.646-1.9.009-.629.206-.386.377.1.377.063.332-1.1-.233-1.949-.771-1.365-1-1.5-.206-.557.1-.682.359-.3.332.368.2.763 1.524 2.389.386.054.6-.476 1.524.988.3.081.744-.162.287-.242.323-.907.646-1.015.861-.458.932-.467.484.072.036 1.473-.045.961.959 1.293.574.3.439-.5.744-2.91-.143-.772-.412.431-.4 1.1.018.521-.368.871-.852-.62-.009-1.778 1.049-2.667.762-.4 1.372 1.015-.054 1.176.5.88.5.26.233.233.619 1.212.251.62-.529 2.524-.43.512-1.686.692-2.385 1.509.377.144 1-.368 2.367-.943.69-.449 1.148-1.194.3-2.353-.188-.449L39.68 70l-1.28-1.67-.224-1.778.412-.386 1.47.234.332-.162.278-.287.179-.332-.152-2.7-.484-1.248-1.937-2.308-.69-.656-.332-.18-.556-.1-.6-.018L35 57.913l-1.757-1.194-.278-.485-.511-.413-.547.1-1.058.305-.35.422.17.359.5.216.314-.1.5-.368 1.117.345 1.112.6 1.614 1.428 1.811 1.841.287.144 1.471.413.269.359-.206 1.024-.771.889-1.187.102-.9-.62-.314-.674-2.1-.952-2.537-1.9-.816-.53-.533.076.726 1.976.421.26.493.1.35-.009.448-.225.457.287.341.368.421.727-.789 1.329-.3.2-.5.108-.87.287 1.533-.224.8-.656.466-.287.43.305.134.548-.421.449-.879.368-.78.4-.646.422-.206.53-.4 2.55zm58.011 57.662l-.018 2.137-.072.081-.09.027-.215-.018-.152-.081-.269-.269-.457-.53-.26-.2-1.712-.835.511.9.135.171.17.207.314.225.538.225.134.44-.269.368-.412.2-2.017.4-1.354.153-.3-.009-.26-.054-4.707-1.733-.879-.35-1.336-.727-.126-.5.072-.242.377-.413.063-.242-.054-1.374-.135.018-.977.673-.09 1.311-.233.485-4.456.977-1.569.108-.421.018-.43-.117-.323-.215-.179-.431-.045-.727.206-.332.269-.341.672-1.167.054-.3-.152-.126-1.1 1.419-.341.745-.126.359-.009.224-.386.144-.484-.135-2.5-.162-1.39.718-.179.045-.152-.009-.493-.126-.269-.188-.179-.3.61-.781.215-.171.2-.072.511-.108.386-.144.771-.458 1.094-.718.233-.216.744-1.087.072-.26-.108-.117-.26-.027-.771.036-.17.054-.852.943.2.2.323.207-.09.189-.592.377-1.148.4-.915.242-1.237-.054-.287-.692.179-.117.565.009 1-.332.135-.152-.143-.153-.188-.045-.134.009-.8.242-.825.674-.977 1.257-.323.09-.125-.162.009-.269.116-.269.117-.189.188-.26.117-.2.1-.224.341-1.428-.027-.467-.556-.126-.341.26.045.314-.072.242-.188.269-1.354.781-.206.1-1.175-.521-.251-.135-.126-.18-.009-.242.161-.144.188-.027.179-.683-.054-.817-.906-1.221-.242.018-.61.691-.959 2.515-.09.485-.135-.018-.2-.117-2.027-1.523-.152-.2-.359-.045-.377.135-.538.485-.269.377-.242.1-1.219.081-.134-.018-.3-.09-.2-.215-.135-.413-.3-1.284-.1-1.293.1-1.024.152-.153.188-.027.682.26.6.673.179.467.045.242.17.278.242.144.95.377.8.278.152.009 1.193-.62-1.479-1.724-.287-.162-.17.036-.439.224-.206.009-.556-.35-.161-.225-.1-.682.726-.422.332-.036.287.027.135.027.233.242.135.566.879 1.284.215.171.206.1.475.117.914-.368.063-.216-.224-.224-.753-.108-.206-.108-.143-.153-.206-.386-.135-.485.206-.269.17-.018 1.793.79.906-.422-.6-.359.242-.341.484-.35.2.009 2.125 1.293 2.788.853.421-1.176.009-.3-.018-.269-.036-.252-.117-.548.135-.251.538-.341.5-.162.556-.027.439.027 1.381.144.135.027.493.189.072.189-.744 1.15-.511 1.23-.269 1.3-.26 1.751.439-.521.968.853-.583-1.1-.1-.2-.126-.494.054-.368.412-1.3.1-.207.269-.413.17-.207.493-.485.215-.009.161.4.179.305 1.336 1.158.439.2.161.108.143.135.672.566.135.171.116.179.143.305.17.278.269.117.26.027 1.417-.62-1.184-.9-.3-.225-.538-.3-.314-.144-.637-.341-.233-.135-.278-.189-.5-.359-.152-.225-.637-1.132.117-.422-.045-.332-.188-.332-.161-.216-.206-.242-.314-.216-.753-.251-.251-.045-.556-.063-1.094.063-.448-.018-.233-.063-.179-.126-.242-.243-.179-.305-.493-2.039.484-.153.314.278.959.709 1.686.88 3.864 2.191 2.394 2.236.224.108.879-1.006.045-.224-.152-.153-.915-.224-.224-.081-.3-.305-.117-.251.027-.243.825-.808.475-.422.215-.162.179-.036.135.018.619.44.439.611 1.3 2.856.932 2.416.314.4.233-.117.179-1.589-.843-2.065-.484-1.114-.215-.162-.278-.287.206-.548.117-.108.287-.009.511.144 1.434.754.3.305.332.449 3.138.781 1.695 1.015.179.126.117.18.063.314-.036.242L81 121.16l-.134.1-.475.278-.179.207-.512 1.085-.152.377.4 1.185.135.144.135-.763.457-1.15.332-.736.143-.314.161-.215.395-.3.269-.081.152.063.117.18.17.422.206.548.063-.063.3-.53-.188-.754-.135-.314-.018-.449.09-.332.179-.35.143-.081.574.009.134.018.377.162.475.422.17-.027.17-.189.018-.8-.188-.225-.179-.126-.834-.521-2.367-1.392-1.748-.826-.341-.117-1.058-.458-.179-.126-.17-.207-.26-.422-1.4-.566-.359-.1-.251-.045-.287-.027-.251-.045-.341-.117-1.13-.449-2.089-1.473-.224-.242-.108-.26-1-3.332-.359-1.859-.081-.5-.036-.4.045-.44.251-.467.224-.216 2.905-1.877.17-.045.395.054.278.018.152.009.26-.027.663-.224L80.2 99l.17-.126.17-.314.063-.422v-.228l-.203-2.191-.117-.287-.243-.232-2.44-.208-.412.018-3.685.566-.125.036-.529.2-.457.287-.52.431-.161.207-.287.494-.242.153-1.65.754-.188.036-.135-.018-.206-.1-.26-.189-2.331-1.958-.081-.215-.359-1.652-.081-1.06.009-.287.376-3.825.072-.3.081-.216.179-.251.968-1.167.161.153-.188.5-.027.332.251 1.033.215.054 1.47-.476.206-.081.269-.171.152-.144.135-.153.117-.171.09-.206.341-1.212.036-.26-.027-.341-.125-.224-1.327-.234-.6-.961-.018-.26-.117-.305-.233-.26-.3-.144-.386-.063h-.143l-.251.036-.35.072-.179-.045-.072-.189.3-.431.359-.216 2.34-.431.242-.036.314.063.323.189.134.144.17.261.188.458.43.646.2.243.314.269.314.126.26.036.26-.027.3-.126 2.215-1.32.269-.243.233-.341 1.157-1.976.117-.4.018-.278-.072-1.688.269-.314.278-.225 1.444-.772.448-.144.717.934.117.171.081.207.054.233.027.26.108.251 1.409 1.961.143.144.386.341.341.233.35.09.206-.009.35-.153 1.444-.718 1.659-1.1.161-.126.179-.26 1.488.6.986.763-.006.195-.027 3.035-.045 10.2.009 1.32-.018 3.673-.036 7.1-.027 3.413-.036 7.328.018.449-.018 4.185.018 5.361zM11.4 27.758l-.152-.036-.959-.539-.251-.323.359-.691.395-.368.807-.539.332-.144.278.189.439.305-.61-.826-.341-.072-.368.162-1.049.862-.439.09-.323-.566.081-.934.251-1.85-.45-2.021.448-2.928.529-.557.753-.611 1.641-2.29-.5.18-.78 1.042-1.417 1.67-1.022.682-.2-.4-.1-.8-.448.575-.045.539.018 1.006.027.754.215.5.323.449-.278 2.6-.396 1.792-.43-.1-1.183-.9-.924-1.86L4.6 19.406l.3-1.158-.251-1.383-.439-.8-.538-.557-.439.207-.395.233-.31-1.048-.063-.6-.018-1.1.484-.62.287-.108.278.063.672 1.2.152.53.457.961L5.8 16.56l.368.26.108.036.018-.162-.475-.844-.457-.638-.233-.305-.269-.431-.547-1.3.045-.934.6-.153.278.332.69 1.149.395.135 1.085-1.482.134-.377-.3-.808.43.323 1.03 1.256.744.988.368-.9.788-3.778-.8-.952-.466-.494-.287-.2-.26-.431L8.1 5.3l-.479-1.33.152-.853.923-.7 1.748-1.221L11.7.871l2.555.611.224.79.314 2.883.3.853.054.4-.1 2.434.4 2.1.063.422-.009 1.661-.341 2.38-.242.9-.3.53-.117.754.3.88-.637.7-.628 1.356.036.575.843-.862-.054-.386.036-.413.8-.171.314.368.3.629.072 1.239-.655 3.817-.17.314-.807.988-1.094.979-.4.117-1.354.036zm79.027 110.7l-.278-.036-.3-.09-.26-.359-.242-.6-.314-.3-.377.009-.448.359 1.784 1.922.708-.207.377-.242.314-.144.395-.063.628.117.861.377 2.3 1.132.233.458-.1.629-.206.458.538.171.762-.1-.529 1.185.789 1.329.386.162.619.081-.152 1.805-.941.916-.161.135-.063.027-.35-.081-.17-.332-.421-.664-1-1.159-.5-1.113.152-.835-1.4-1.185-.251-.081-.43.539-.735.054-.861-.781-.884-.051-1.542.018-.511.638-.7.305-.323-.009-.565-.44-.574-.683-.368-.736.421-.638.852-.26.332-.054.314.135.43-.1.179-1.132-1.632.584-.188-.431.242-1.275.386-1.131.52-.566.126-.422-2.008 1.563-.8.2-1.444-.449-.323-.2-.35-.341-.287-.485-.359-1.473-1.65.305-.341.117-.287.207.807-.072.879.1.359 1.338-1.354.512-.2.925 1.094 1.7.036 1.374 1.121.26.888.063-.108 1.329-.224.234-1.982-.512-1.318.251-.834-1.958.341-.781.672-.162.233-.215-.906-.5-.35-.027-1.022.9-.493-.961-1.157-.53.072-.691.386-.754.986-.781.35-.108.421-.189.3-.44h-.52l-.565.35-1.166.9-1.91.557-.323.018-.789-.763.7-.126.269-.225-.78-.844-1.417-.072-.199-.247.278-.638 1-1.141.457-.224 1.309-.305 1.91-.215 3.568-.674 2.161-.566 2.582-.224 2.035.081.3-.063.9-.7 1.022-.189 1.874-.2 1.354.539.8 1.087.206.88-.152.584-2.923 1.356-.224.341-.753.2-1.569-.431-.655-.422-.457-.467-.4-.359-.26-.2-1.435-1.006H84.4l-.242.539 1.219 1.374.9.557 1.5.88 2.286.1 1.919.036.843.063 1.318.88.879.979-.072.431-3.793.566-.726.009zM29.938 105.8l.628-.44.126-2.074-1.686.1-.547.4-.466.225-.377.117-1.1.027.583-.476.368-.216.242-.287-.117-.871-.377-.027-.511.054-.395-.054-.278-.278.018-.862.17-.44.224-.215.547-.09.332.269.26.027.3-.215.4-.4.26.027.977.53.242.341.161.413.323.548.368.234 1.112.35.368.027 1.184-.036 1.157-.2-.018-.566-.386.009-.269.252-.87.072-.843-.1-.413-.063-.914-.242-.4-.278-1.569-2.542-.287-.826.556-.063.448.162.708.359 2.349.458-.341-1.1-.547-.8 1.237-.413.959.108 1.13.467.484 2.335-.206.97-.242.843.4 1.212.762-2.254.108-.674-.35-.8-.3-.817.932.341.663.835.78 1.8 1.094-.88 1.3.189.583.377.493.853-.054.6-.386-.045-.368.135-.233.44.538 1.437.43-.629.466-.575 1.408.575.3.233 1.219 1.59-.448.314-.224.063-.242.889-.421.278-.323-.036-1.013-.224-.825.709.018 1.545.242.206.52.243.412.126-.054 1.006-1.309.135-1.345 1.167h-.323l-.278-.126-.529-.656-1.085.575-1.453.952-.655-.009-1.533-.772-.386-.431.26-.368 1.453-.027 1.47-.979.628-3.718-.941-.5-.35.224-.825.727-.4.18-1.121-.072-.081-.494-.045-.566-.466-.2-.538 2.254-.018.53-.386 1.5-1.157-.53-.448-1.123-.439-1.212-.278-.853.09-.215zM96.8 129.4l1.228.009 1.309.153 1.112.108 1.766.081.807-.081.287-.018 1.614-.009.547.054.87.207.475.135.43.18.3.153.493.269.233.224 1.426 2.2.027 1.428-.332.97-.17.359-.117.189-1.677 2.236-.125.1-.556.072h-.147l-1.291-.4-.215-.09-.278-.18-.17-.215-.081-.225.036-.368.26-.323.143-.234.036-.242-.09-.207-.26-.278-.26-.2-.332-.117-.377-.09-.26-.009-.242.063-.43.189-.152.153-.117.189-.135.323-.125.557.036.557-.143.162-.2.036-1.829-.135-.224-.081-.681-.413.188-.242h.17l-.018-.4-.386-.691-.242.09-1.677.907-.412.251-.09.009-.278-.036-.215-.09-.188-.126-.233-.233-.09-.216-.5-2.389.081-.377-.287-2.11-.251.063-1.166.063-.386-.485-.17-.772.206-.287.143-.081 1.695-.287 1.687-.002zM29.185 93.807l.852-.162.152.054.932.629 1.444 1.024.143.243-.135.305-.188.108-.135.009-1.453-.09-3.174-.844-.117-.584-.081-.251-.879-.4-.368-.781-1.47-1.41-.206.054-1.237-1.23-.789-1.024-1.076.243-.538.287-.61.386-2.995-.117-.3-.18-.314-1.248-.941-1.176-.251-.009-.8-.206-1.031-.817-.108-.242.116-.378.242-1.015-.35-.566-.126-.09-.323-.072-.6-.3-.179-.117-.655-.88.538-.817.161-.018.592.4 1.838 1.8.717.853.493 1.158.556.638 1.417.323.161-.287.52-.144.861-.162 1.336.521 1.632.961.8.7.529.332.959.485.8.027.018-.4.61.153.538.718.09.171.224.907-.126.252-.2.251-.117.287.466 1.275.134.225.2.108.484-.88-.134-.4-.126-.476-.126-.736.161-.224.188-.018.233.072.368.162 1.4 1.751.054.243-.7.62zM55.8 109.8l.3 1.356 1.031.225 1.139-.5.87.611.117.251.233 1.652.054 1.994L58 117.775l-.152.144-.233-.018-.224-.225-.484-.637-.726-.171-1.2-.557-1.219-2.29-.063-.368.1-.359.152-.144.4-.036.188-.108.09-.171-.493-.808-1.049.871-.484 1.437-.072.233-.036.485-1.291-.3-.224-.153-.269-.682-.135-.458-.1-.413.054-.3.753-.916-.323-2.514.152-.485.269-.332.206-.162.538-.108 1.282.027 1.183.521.977.539.117.108.108.368zm9.657 4.679l-.117-.036-1.08-.443-.52-.242-.484-.269-.161-.135-1.157-1.087-.242-.278-.753-1.4-.242-2.182-.018-.269.018-1.221.1-.207.69-.512.637-.242.206.036 1.1.377.278.252.161.063.135.018.233-.135.17-.287.009-.269-.12-.311-.224-.287-.17-.126-.556-.269-.117-.18-.072-.287-.054-1.41.072-.305.386-.117.179-.117.17-.126.224-.215.287-.314.179-.26.1-.206.108-.35.1-.431.1-.278.108-.189.2-.171.592-.1.2.207-.063 1.589-.054.243-.072.242-.036.26-.018.44.009.278.036.26.628 3 .735 1.886.466 1.293-.045.332-.26.3-.269.09-.475.027-.135-.018-.242-.063-.206-.1-.35-.252-.395-.359-.341-.548-.161-.207-1.2-1.194-.081.234v.278l.152.718.081.215.1.189.26.341.224.224.126.171.251.413.547 1.787.09.35.206 1.634-.152.26zm-14.624-6.187l-.637.665.135.242.278.287.457 1.787-.045.35-.744 1.1-.233.3-.179.045-.134-.018-.475-.144-.188-.117-.161-.144-.2-.251-1.076-1.724-.027-.341.054-.467-.108-.189-.2.009-.143.314-.018.287.063.3.439 1.527.466.584.179.108.3.171 1.246 1.581.009.332-.117.26-1.007 1.654-.134.09-.188-.009-1.085-.251-.233-.449.17-1.176-2.009-2.039-1.157-1.257-.17-.207-.126-.242-.081-.215-.368-2.3-.054-.485.063-.35.538-.108.134-.009.135.027.78.332.179.2.152.431.538-.009.663-1.589.206-.6.332-.18.26-.108 2.815 1.042.87.449-.054.35-.117.153zM7.666 32.607l-.269.422-1.56 2.1-.161.189-.287.108-.932-.072-.135-.054-.054-.189v-.3l.144-.323.448-.287.359-.449.565-.826-.184-.166-.857.24-.628.413-1.3.566h-.17l-.135-.135.009-.323.17-1.392L3 31.027l.341-.97.1-.26.152-.2.17-.09.237-.016.215.081.852.359.054.2-.135.216-.126.081-.36.072h-.51l-.081.162.188.35.188.162.538.287 1.022.251.681-.108-.045-.979-.143-.611-.879-.278-.959-.62-1.013-.862-.224-.718 1.04-.826.215-.027 2.017.5.152.126 1.677 2.048-.628.62-.186.223-.1.207.55.027 2.1-.512.224-.5-.126-.234.538-.242.188.224.126.431-.036.674-.224.629-2.451 1.443-.179.1-.493.162zm4.268 16.344l-2.1-1.006-.957-1.745-.054-.216v-.323l.054-.314.341-.9.152-.117.735.063 1.488.4.708.287.959-.53.072-1.59-.036-.4-.126-.287-.341-.359-.152-.072-.215-.135-.081-.189.063-.216.278-.171.457.108.879.413.8.539 1.022 1.033.108.26.054.341.323 3.3L16.1 48.3l-.134.153-.161-.081-.054-.4-.2-.727-.351-.545-.2-.081-.144.045-1.453.88-.251.844-.1.171-1.049.368-.072.027zm55.733 80.256l.359.045.126.135-1.659.772-.547.054-.251.216-.036.359.045.377-.117.206-1.408.225-.439-.036-.341-.117-.287-.18-.152.09-.152.377 1.013.431 2.071.269 1.632-.269.2-.018.663-.027.126.072.081.44.188 1.347-.377.368-.341.036-.17-.063-.152-.144-.117-.341-.323-.359-.26-.054-.135-.054-.43.35-.045.512.117.189.341.188.278.045.143.09.081.215-.135.314-1.883.871-.233-.027-.126-.18-.072-.305-.036-.413v-.566l.224-.494-.726-.862-1.184 1-.278-.063-2.762-1.051-.906-.745-.1-1.742.17-.215.188-.117 1.408-.305 1.049.242.538.171.592.3 1.587.054.224-.126-.7-.305.09-.224 1.291-.745.17-.054.78-.036 1.1-.117zM18.452 43.689l-.341-.934-.152-.189-.278-.207-.574.305-.063.216-1.1-.422-1.264-1.015-.125-.153-.61-1.365-.1-.3-.063-.4.053-.225.959-.934.9-.925-.959-.4-.135-.009-.448.162h-.192l-1.354-.7.762-.7.161-.126.412-.269.233-.1.17.027 2.134 1.419 1.139 2.622.475 1.132.708 1.841.063.4-.027.476-.152.656-.126.09-.108.027zm54.882 88.724l.1-.638-.018-.269-.224-.494-.377-.126-.072-.332.287-1.392.126-.1.762-.278.126-.027 1.408-.243.681.027 3.6.772.368.09 2.152.691.484.458-.224.153-.412.036-2.385.6-1.246.377-1.883.341-1.408.243zM22.182 82.321l-.117-.009-.179-.117-1.659-1.949L20.12 80l.009-.206.278-.772.126-.162.735-.86 2.032-1.929.789-.521.179-.027.179.054.161.135.135.234.547 1.158-.735 2.613-.705 1.553-.1.2-.179.26-.224.108-.215-.072-.132.016-.43.26-.386.278zM8.509 56.377l-.116-.009-.287-.2.072-.53.9-.709.663-.3.269-.144.941-1.042.108-.251-.134-.036-1.372.772-.269.216-.26-.09-.143-.233-.054-.278.045-.242.108-.189 2.035-2.191 1-.287 1.3-.054.574.683.1.18.323.907-.1 1.688-.161.278-.529.611-.126.081h-.3l-.161-.126-.448-1.5-.52.278-.269.611-.556 1.194-.179.1-.547.117-.484.036-.7.09-.232.129zM4.187 42.494l-1.237-.341-.26-.108-.134-.153-.744-2.074.108-.252.583-.6.412-.26.179-.018.188.036.323.225.072-.575-.395-.952-.368-.314-.439-.314.027-.278.61-.557.287-.036L6 36.5l1.1.063.126.135-.081.269-1.272 1.684-.206.054-.143-.018-.233-.063-.2-.09-.224-.2-.036.566.054 1.3.054 1.482-.206.638-.224.153-.206.072-.117-.054zm1.892-17.727l-.215-.377-.735-.9-.3-.108.108.6.1.359.009.206-.17.09-.3-.117-.4-.413-.242-.3-.332-.665-.009-.243.054-.242-.742-.557-1.426 1.365-.251-.1-.35-.8-.063-.2-.143-2.402.52-.692 2.286-.215.152.045.152.126.188.225.466.674 1.408 2.892.063.2.26 1.428-.09.126zM8.76 69.6l-.224-.422-.936-2.635 1.112-3.008.215-.3.386.422.045.216-.152.287.027.224.314.063.421-.063.269-.09.3-.359-.387-2.475-.377-1.024-.341-.171-.179-.165-.027-.224.143-.225.242-.18.179-.09.26-.063.807.305.206.278.054.216.188 1.823.063.673-.2.862L10.535 66l-.672 2.1-.637 1.132-.188.242-.152.126H8.76zM5.084 8.63l-.708-2.2-.117-.278-1.273.638-.412.8-.108.162-.189.148L2 7.939.215 6.538l-.09-.171-.072-.18-.044-.332v-.233l.027-.269.045-.234L.3 4.5l.143-.2.986-.332 2.242.153.206.072.484.207.152.126.269.386L5.8 7.7v.243l-.484.53-.143.117zm3.9 3.826l-1.192-1.419-1.883-.637-.574-.4.027-.323.116-.26.35-.629L6 8.549l.834-1.06 1.847.117.341.269.7.79.054.692-.009.251-.457 3.224-.179-.144-.143-.233zM4.411 59.61l-.1-.305.036-1.6.529-.575.547-.871.117-1.024.037-1.435-.018-.341.027-.287.063-.233.1-.189.592-.539.206-.144.161-.009 1.6 1.428.108.62-.045.593-.063.233-.2.153h-.17l-.188-.171-.233-.045-.125.09-.789 1.8.054.35.018.368-.027.332-.09.287-.152.359-1.721 1.1-.143.054h-.131zm14.866 15.707l-.574-.449-.475-.925-.09-1.634.09-.207.2-.153.143-.063.269.036.3.153.143.144.323.189.152-.054-.511-1.123-.134-.153-.323-.252-1.112-.377-.726.108-.206.072-.3-.027-.251-.117-.359-.3-.027-.269.861-.817.224-.126.251-.09.135-.009.188.108.161.126 1 .871.843.871.529.62 1.937 2.389-.009.287-.538.4-1.614.844-.412.018-.1-.1zM1.811 12.339l-.117-.018-1.425-.781-.2-.144L0 11.207l.7-1.392.681-.467.179-.048.24.12.646-.611.359-.979.6-.781.224-.18.224-.1.152.054.188.458.487 1.385.054.269-.251.521-.215.332-.117.144-1.82 1.985-.52.422zm10.4 32.14l-1.022-.09-.511-.153-1.344-.476-.161-.251-.323-1.4.063-.683.072-.224.771-1 .888-.314.188.063.789.754 1.049 2.335.027.233-.135.754-.179.4-.17.045zm6.832 21.7l-.87-.162-1.819-1.117-.681-.871-.959-2.811 1.65.557 2.573 2.11 1.04.718-.018.225-.538 1.15-.134.153zm39.568 64.289l-.215-.018-.932-.45-.708-.611-1.524.97-.2.1-.852-.242-.6-1.338.672-1.257.61.054 1.964.422.825.26.35.26.43.189.314-.063.278-.171.2-.26.152-.036.663.494.395 1.051-.26.117-.421.009-1.139.521zM24.639 71.805l-.072-.18-.35-.647-.583-.9-.879-.934-.242-.189-.771-.539-1.642-.984-.179-.117-.224-.2-.018-.727.233-.835.448-.341.161.036.242.189 2.161 1.985.664.638.457.467.117.234.655 1.5.278 1.132.009.332-.072.377-.2-.009-.2-.287zm-3.8-8.747l-.287-.081-.188-.1-1.775-1.32-.269-.234-.206-.278-.018-.377.1-.189.592-.126.556.009.656-1.138-.2-1.239.081-.207.117-.09.188.036.206.189 1.695 4.3-.009.323-.179.216-.161.117-.323.171-.269.072-.134.009zm85.241 86.147l.018-.692-.117-.117-.681-.18-.762.2-1.184-.422-.054-.575.17-1.1 1.453-1.607.744-.386.224-.009 1.085 3.3.206.9-.063.251-.287.251-.278.108-.475.072zM10.024 70.081l-.081-.036-.26-.494 1.31-4.451.1-.278.269-.62.144-.305.143-.215.161-.018 1.659.233-.054.314-2.1 4.652-.134.162-1.067.988-.09.072zm32.852 41.138l.708.656.385.79-.556 1.2-.637 1.15-.26.1-1.372.081-.484-.072-.278-.18-.143-.162-.126-.88 1.587-2.422.26-.26.439-.224.332.027.116.1zM23.159 75.334l-.529-.674-.421-1.212-1.094-.934-.986-1.284-.1-.18-.108-.449.188-.278.4-.233.143.009.6.4.529.853 1.766.979.26.305.152.269.054.224.323 1.419-.054.332-.17.225-.547.305-.314-.009-.1-.072zM28.4 96.528l.278.126.161.269-.906 1.23.816 1.158.09.323-1.2.674-.26-.1-1.713-1.024-1.569-1.194-.2-.305-.224-.422.045-.224.215.009.457.5.421.323.269.189.215.09.135.027.529.045 1.085-.413-.018-.225-.117-.108-.395-.207.179-.817 1.461.036.143.009.1.027zM5.738 6.942L5.487 6.4 4.429 3.17l.413-.027.637.207.188.09.359.189.43.269.43.323.152.171.108.153.179.341.063.2.233.979-.036.225-.108.171-1.3.557-.224.009-.215-.081zm9.926 43.931l-1.7-.817-.179-.171-.377-1.1.054-.575 1.354-1 .215-.027.143.072.152.26.789 1.643.072.2.036.234v.566l-.3.709-.161.036zm1.865.242L17 48.412l-.179-1.141-.134-1.913.09-.2.332-.018.251.539.762 2.47.448 1.823.1.745-.726.907-.179.1-.179-.018-.1-.18.027-.341.018-.072zM68.546 115.5h-.152l-.269-.045-1.713-.709-.242-.135-.5-.763-.1-.2-.027-.269.081-.386.117-.26.17-.045.251.054 2.242.9.744.476.224.359-.036.341-.152.26-.323.35-.17.054-.143.018zM30.4 112.449l-.789-.431-1.569-.727-.134-.224 1-.925.475-.018.421.027.87.117.161.072.708.4.063.224.215 1.069-.188.224-.224.054-1.013.144zm81.655 24.184l.251.269.287 1.114-.2.53-.4.323-.242.072-1.381-.072-.637-.054-.125-.108-.135-1.1.368-.593.287-.171 1-.4.359-.036.242.054.215.09zM32.431 68.222l-.054-.431.072-.386.09-.278.09-.206.538-1.15.117-.09 1.016-.521 1.013-.377-.063.665-1.237 2.6-.35.144-.717.251-.269.045-.135-.081-.117-.18zm-12.3-13.865l-.152-.108-.152-.207-.227-1.373.009-.207.143-.979.1-.189.144-.072.242-.027.932.153.323.216.081.287.161 1.042-.036.467-1.21 1.033-.359-.036zM6.725 3.834l-.09-.045-1.381-.9-.036-.3.771-1.009L7.334.036 7.5 0l.09.233.049.207.054.323-.009.251-.027.269-.332 1.41-.314.88-.135.215-.152.045zm4.734 32.787l-.278-.09-.09-.153.395-1.922.717-.548.144-.054.233.009.771.09.8.26.036.207-.179.314-1.067.934-1.049.871-.188.081h-.242zm4.2-17.574l-.125-.763-.144-1.778.09-.781.063-.305.152-.063.762.673.323.305.126.206.565 1.221-.063.18-1.578 1.374-.17-.269zM6.985 65.079l-.108-.108-.063-.207.341-1.94.233-.817.081-.215.2-.242.278-.216.251-.09.323.063.269.269.045.323-.117.772-.224.835-.2.62-.126.243-.143.153-.565.494-.3.108-.179-.045zM19.4 55.865l-.771-.44-.511-.368-.152-.189-.179-1.087-.036-.62.054-.377.986-.35.17.108.672 1.841.072.207.027 1.087-.072.224-.161.036-.1-.072zm96.332 81.953l-.592-.153-.126-.18-.072-.386-.009-.224.215-.916 1.112-.808.3-.018.2.027.879.413.152.395-1.157 1.482-.762.368zM66.2 127.9l.314.09.251.126.3.422-.135.242-.161.054-2.349.485h-.95l-.663-.4-.179-.314.179-.18.43-.251 1.372-.4.95-.108.565.2.072.027zM7.541 42.62l-.161-.18-.1-.18-.3-.9-.027-.368.421-1.221.17-.1.968.036.107.162.036.287-.1 2.658-.152.117-.412-.045zm33.184 76.259l-.152-.072-.637-.862-.2-.916 1.426-.817.278.027 1.372.566.063.233-.125.458-.888.4-.152-.009-.986.988zM11.889 68.5l.117-.458.081-.224.143-.216 1.964-1.985.448.278.251.323-.009.611-.143.413-.735.5-1.515.943-.556.278-.134-.117.09-.35zm55.734 44.4l-.135-.018-1.13-.826-.358-.388-.17-.269-.063-.305.09-.216.125-.1 2.161-.413.117.189.143.413.072.44-.3.853-.188.413-.152.144-.215.081zm-44.481-12.2l-.142-.087-.269-1.051.144-1.679L23 97.7l.17.027 1.65 1.158.269.243-.027.278-.108.2-1.291.88-.188.1-.206.072zm5.487-13.587l-.368.045-.17-.027-.43-.449-.1-.189.135-.278.215-.027.126-.072-.448-.3-.5-.18-1.031-.09-.233.036-1.13.233-.269.162-.135-.162.672-.638 1.569-.377 1.874.539.161.126.52.647-.161.943-.3.054zm-4.913-23.69h-.126l-.3-.063-.233-.135-.1-.18-1.097-2.268-.018-.4.1-.189.3-.018.843.458.663.88.377.862-.018.251zm78.875 88.311l-.412-1.1-.143-.1-.744.009-1.506.44-.17-.072-.125-.189-.018-.359.188-.467.4-.108.144-.018.341.126.251.063.511.1 1.336.036.484-.368.143-.072.574.171.215.287-.377 1.06-.143.171-.6-.207-.152.018zm7.6-20.34l.619.171 1.39.521.161.216.5 1.7-.188.1-.251-.117-2.842-1.967-.143-.305.063-.234.108-.126.251-.045.242.063zm-98.616-57.64l-.78-.79-.135-1.051 2.224-.566.3.081.063.216-.915 1.742-.386.26-.251.1zm12.266-19.5l-.924-.207-.126-.09-.314-.314-.269-.808.081-.207.3-.341.5-.485.215-.054.224.072.224.135.17.18.117.162.1.18.081.35-.027.431-.193.767-.081.207-.081.018zM8.294 2.092l-.3-.027-.17-.135-.024-.251.458-1.131.215-.3L9.558.26l.637.09.377.189-1.166 1.122-.215.18-.17.09-.386.126-.341.036zm2.977 68.968l-.225-.06-.117-.171-.054-.215.018-.431.17-.449 2.252-1.334.161.413-1.067 1.841-.789.346-.224.054-.126.009zm89.829 74.383l-.126-.171.457-2.317.188-.278.278-.18.188.009.215.233.134.171.2.26.126.18.135.368-.036.772-.646.5-.278.2-.341.126-.493.126zm-31.038-13.776l-.135-.018-.188-.108-.188-.2v-.234l.17-.207.152-.144 1.838-1 .215-.09.188.009.126.108.152.233.009.332-.439.674-1.2.485-.7.153zM20.407 93.438l-.063.252-.565.961-.359.233-.8.26-.224-.027-.135-.09-.224-.287-.037-.233.7-.7.538-.485.538-.4h.152l.179.117.269.251zm86.846 58.129l-1.309-.709-.789-.664.081-.314.135-.1.233-.081.708.054.933.305.439.629.045.8-.475.081zM22.918 65.133l-1.022-.2-.143-.144-.108-.961.386-.781.161-.126.161.027.144.135.126.153.242.314.556.916-.054.3-.269.26-.179.108z" class="cls-1" transform="translate(.845 483.566)"/>
        <path id="CL-TA" d="M.027 4.346l2.057-.1L4.086 3 6.08 1.5h3.5l2 1.5 1.993-.251.251-1.5L15.078 0h1.931l-.162.368.835 1.5 1.5 1.042.539.476 1.051 1.2.206.2.431.207.332.09.4.207.763.674.611.871-1.379 1.427-.269.359-.377.557-1.09 1.293-.036.521.817.584.754.647.557 1.123-.691 1.85-.422-.027-.512.072-1.616.44-.1.341.234.3.584 1.365.225 1.365-.4.189-.251.287.027.682.171.359.189.278.431.458.368.251.413.207.377.153.377.126.269.117.727.5.323.35-.063.269-.476.287-.251.216-.458.629-.009 1.859.072.287.027.036-.961-.063-2.317-.305-1.123.144-.287.072-.242.144-.135.323.189.269.359.216 1.006.4h.35l.323-.027.7-.153.368.09.153.341-.1.584-.126.368-.521.961-.207.323-.162.35-.081.386v.431l-1.185.512-1.6.171-3.43 1.033-4.1.961-.961.216-.889-.323-.79-.135-1.437-.162-.323-.027-1.392.072-.189.072-.413-.8-.055-.436.3-.458-.7-2.667-.305-.691-.283-.584.216-.745.234-.44-.1-.709-.207-.377-.216-.171-.476-.422.53-5.523.377-1.23.063-.368-.332-.844.144-1.024.171-.4.126-.4.027-1.047-.009-.377-.18-.9L1.4 9.672 1.015 7.6.566 5.954 0 4.921z" class="cls-1" transform="translate(69.328 18.984)"/>
        <path id="CL-AN" d="M28.423.961l.341.054.323-.036.377-.009 2.488 4.005.521.871.036 4.266.207.251.4.539.215.422.216.647.189 1.024.036.305.018.512-.018.449.027.665 1.125 1.174.305.18.368.611.269 1.841v.476l-.126.359.54 1.733.52 1.77-.44 2.173.1 1.589 1.06.682 2.739.323 3.116-.665 1.94-.431 1.005 1.089 1.329 1.41-.6 1.679-.584 1.616-.575 1.616-.162.467-2.362 8.738-3.879 1.751-3.314 1.482-3.718 1.634-.808.377-.305.682-.53.691-.6-.1-.314.2-.925 1.41-.573.917-.422.826-.341.736-.045.44.3.781.611.359 1.85 3.17-.826.44-.844.135-.135.126-.233.386-.252 1-.691-.009-.521.135-.4.251-.521.44-.431.4-.305.225-.314.072-.638-.036-.494-.072-.413.063-.449.18-.368.2-.278.189-.647.512-.26.7-.126.979-.261.494-.278.009.126 2.479h-3.759l-.5 1.5-1.248.251-1.248 1.5-2-1.5-1.015-1.365-.171.018-.862-.081-.377-.072-.467-.036-.458.189-.242.135-.476.305-.3.26-1.625.979-.907.09-1.185.18-.548.108-.359.09-.323.117-.242.126-.233.144-.71.53-.611.844.35-.629.054-.278-.045-.458-.252-.772-.361-.385-.251-.287L0 68.483.4 67l.215-.656.629-1.365.763-1.006.467-.35 1.1-1.482.226-1.48.009-.808-.289-.773-.6-.826.07-1.854-.4-.826-.234-.763-.467-1.769.206-2.209.252-2.245.108-.674-.162-.287.224-1.149.2-.709.144-.269.1-.961-.069-.839-.216-.5-.009-.476.126-1.733.171-.952.386-.512.332-.26.206-.377.26-.647.117-.377.081-.323-.009-.575-.107-.428-.162-.431L3.9 35.9l-.434-.3-.359-.18-.278.117-.35.772-1.087-.2.287-1.679.063-2.021.252-2.281.449-.512.457-.206.1.611.252.332.763-.144.412-.209.251-.225.216-.26.153-.242.368-.871.269-.763-.072-.4-.108-.3-.126-.629.341-1.994.323-2.667.2-1.895.251-2.074.189-.871.269-1.009.485-3.466-.054-.422-.018-.925.225-.736.584-.5.072-.682.413-1.455.189-.072 1.392-.072.323.027L12 7.651l.79.135.889.323.961-.216 4.095-.961L22.163 5.9l1.6-.171 1.185-.512v-.431l.081-.386.162-.35.207-.323.521-.961.126-.368.1-.584-.153-.341-.368-.09-.7.153-.323.027h-.35l-1.006-.4-.364-.211-.188-.27.135-.323.242-.143.287-.072L24.48 0l2.32.305.961.063.063.144.269.3z" class="cls-1" transform="translate(63.575 45.206)"/>
        <path id="CL-AT" d="M37.528 1.087l-.26 1.087-.054.278-.036.431.045.341.548 1.676.673 1.419.1.35.494 2.29.7 3.592-.251.4-.772.709-.512.359-.323.26-.242.314-.171.665-.045.44-.054.781v.287l.018.683.072.287.126.287.35.548 1.338 1.589 1.8 2.784.1.3-.449 1.58-.4.242-.485.26-.243.117-3 1.024-.629-.413-.566-.09-.548.036-.323.18-.512.826-.251.476-.144.44.117.548-.439 1.23-1.805 3.4-.359.413-.512 1.473-.09.593-.449 1.841-.117.332-.171.377-.2.269-.368.09-.467.045-.476.242-.386.9-.144.638-.171.323-.611.781-1.704 1.93-.934.781-.636.472-.09 2.03-.09.494-.4.225-.575 1.141-.009.718.09.323.126.323.081.485-.433 1.297-.4 1.895.027.781-.081.359-.162.26-.413.278-.808.09-.754.907-.88 1.311-.072.889.072.332.332.718.485 1.625.045.171-1.536-.144-2.254-1-1-.5-1.769-.5.072-.4.027-.566-.18-.6-.153-.233-1.679-1.958-.3-.305-.35-.332-.413-.278-.368-.225-.414-.111-.974.76-.5 1.006-1 2.5-2 .251-1-1.5-.839-1.817-.18.108-.26.117-1.545.35-.485.1-.476-.018.2-1.1-.379-1.937L0 51.753l.108-.359.44-.494 1.158-1.123 1.033-1.266.108-.772.063-.871.314-.629.359-.566.853-1.814.072-1.652.009-1.167.216-2.775.449-1.688.287-.844.476-.889.476-.665.548-.26.656-.494.275-1.959-.213-.766-.35-1.437-.386-2.209.108-.35.162-.386.287-.225.754-.162.638-.88.368-.718-.207-.88-.215-.476-.072-.377 1.545-3.852.126-.485.135-1.787.566-1.913-.386-1.437v-.476l.126-1.123.611-.844.71-.53.233-.144.242-.126L13 9.77l.359-.09.548-.108 1.185-.18L16 9.3l1.625-.979.3-.26.476-.305.243-.135.458-.189.467.036.377.072.862.081.171-.018 1.015 1.365 2 1.5 1.248-1.5 1.248-.251.5-1.5h3.745l-.126-2.479.278-.009.26-.494.126-.979.26-.7.647-.512.278-.189.368-.2.449-.18.413-.063.494.072.638.036.314-.072.305-.224.431-.4.53-.438.4-.251.522-.135.691.009-.063.063-.26.575z" class="cls-1" transform="translate(53.673 105.99)"/>
        <path id="CL-CO" d="M2.676 1.859l.476.018.485-.1 1.545-.35.26-.117.18-.108.835 1.814 1 1.5 2-.251 1-2.5.5-1.006.977-.759.413.117.368.224.413.278.35.332.3.305 1.679 1.958.153.233.18.6-.027.566-.072.4 1.769.5 1 .5 2.254 1 1.536.144.027.126.036.656-.09.4-.063.4.081.332.159.229.413.278.036.108.126 1.158-.036 1.742-.144.817-.081.377.79 1.527.278.242.162.35-.036.683-.862 1.976-.5.7-.763.332-.4.045-.278-.045-1.051.665-.988 1.76-.521 1.158-.216.6-.6 2.164-.144.979-.054.6.045.377.467.575-.045.5-.853.943-.871.305-.269-.287-.905.971-.135.332-.365 2.093-.1 2.191-.144.907-.1.5 1.634 4.014.153.242.216.3.233.153.494.108.88-.054.251.144.6.691.063.4-.413 1.158-.539.081-.539.584.413 2.128-.054.557-1.2.153-.359-.216-.108-.35-.2-.718-.353-.298-.35-.108-.26-.009-.35.009-.584-.1-.593-.431-.018-.368-.045-.494-.88-.539-3.9.117-.4.638-.611.683-.269.18-2.658.611-.539-.027-.35-.126-.584-.3-.359.009-.3.2-.278.305.081-1.428.135-.718.081-.35.108-.6.009-1.293-.072-1.814-.368-.88-.314-1.518v-.929l-.054-.4-.656-3.1-.493-1.987-.09-.278v-.467l.162-.8.063-1.356-.153-.521-.2-.35-.063-.332L0 25.01l.009-1.536.045-1.446.036-.79.224-2.416.422-1.015.386-.144.153.242.422.162.303.019.458-.225L3.8 16.514l.251-.449.593-2.954.638-.647-.027-1.1-.386-.4-.234-.871.054-2.874.189-1.1.162-.494-.011-.345-.413-1.374-.18-.306-.314-.3-.683-.5-.314-.18-.269-.207-.144-.323z" class="cls-1" transform="translate(51.241 160.085)"/>
        <path id="CL-RM" d="M20.448 20.771l-.009-.323-.09-.305-.323-.233-.611-.242-.415-.442-.063-.314.045-1.015-.153-.629-.225-.171-.35.027-.359.26-.305.081-.9-.305.117-.781-.5-1.661-.287-.26-.449-.153h-.449l-1.5.584-.5.314-.934.072-.35-.117-1.051.656-1.681 1.949-.054.35.045.647-1.051.24-1.221.036-.036-.018-1.042-1.525L4.14 16.8l-.808-1.491-2.066.117L0 14.907l.682-.44.413-1.41.278-.009.727.036.647.2.422-.027.629-.674.557-2.1-.476-1.171-.188-1.05.009-.306.341-.18.9-.907.4-.512.108-.35-.034-1.077.171-.323.79-.135.781-.018.889-.6L8 1.949l-.16-.692.116-.566.26-.126L9.689 0h1.76l1.2.3.656.243.521.494.174.588.44.638.305.027.826-.7.3.036.889.988 1.311.584 1.069-.934.647-.35.189.377-.081.7-.126.458.072.4 1.212 1.814.314-.045.26-.467.359-.368.314-.054.35.117.916.512.368 1.652-.108.386-.332.386-.774 1.791-.449 3.412.009.745.251.988.458 3.152.4 2.11-.9.674-.593-.045-.3-.081-.368-.009-.548.108z" class="cls-1" transform="translate(51.94 217.476)"/>
        <path id="CL-VS" d="M6.636 2.227l2.658-.611.278-.18.611-.682.4-.638L14.476 0l.88.539.054.494.018.368.593.431.584.1.341-.009.269.009.35.108.359.305.2.718.108.341.359.215 1.2-.153.1.287.88.386.171.476.979 2.021.1.458-.072.557.512.566.8.8 1.149 1.491.117 1.266-.548.916-.359 1.1-.647.862-.359.7-.647.35-1.067.938-1.311-.584-.889-.988-.3-.036-.826.7-.305-.027-.44-.638-.171-.593-.521-.5-.655-.233-1.194-.305h-1.77L11.046 14l-.26.135-.117.566.162.683.054 1.9-.889.6-.781.018-.8.135-.171.323.027 1.078-.108.35-.386.512-.907.9-.341.18-.009.305.189 1.051.485 1.176-.557 2.092-.629.673-.422.027-.647-.2-.727-.027-.278.009L3.52 27.9l-1.2.781-.449.566-.449-.081-.488-.106-.334-.279-.6.019.386-1.4.44-1.042.341-.126.449-.09.368-.189.449-.4.233-.6.072-.305.081-.485.117-1.158-.7-2.793-.153-1.769-.638-2.272.126-.278.611.036 1.643-1.212.593-1.661.314-2.074z" class="cls-1" transform="translate(49.125 204.042)"/>
        <path id="CL-AR" d="M.476 12.042l.054.009.251.126.4.215 1.051.7 3.358-3.3.207-.4.09-.314.1-.494-.24-.394-.447-.225L4.831 6.7l1.527-2.336.368-.44.144-1.454-.17-.324-.808-.072-.278-.341L6.789.26 8.54 0l.539.3.539.35.458.269 1.751.422 1.087-.027.781.916.359.88.79 1.131.584.359.269.108.431.072.458.117.323.162 1.1.943.153.386.413.512.269.189 1.922.323 1.58-.153.377-.108.44.171.413.6v.664l-.054.494-.027.53.054.377.251.952.162.323.458.332.207-.413.171-.4.202-.229 1.132-.539.835-.44.216-.207.2-.548 1.329-.287 2.954-.063.817.135-.018.736-.165 1.186.135.934.4 2.11.269.575.548.575.341.207.467.377.234.548-.054.53-.4 1.661-.79.826-.287.132-.62-.018-.4-.045-.35.054-.566.287-1.805 1.06-1.212.727-.341.215-.422.4-.216.359-.1.413-.054.871.009.422.126.431.126 1.042.189 1.814-.2 1.482-.6 1.733-.449 2.074-.1.62-.18.305-1.176.063-.332-.153-.53-.745-.2.009-.036-.359-.081-.413-.153-.4-.269-.045-.861-.003-.718-.5-.35-.341-.4-.278-.323-.108-2.039-.18-.341.063-.323.162-.377.359-.251.278-.323.18-1.215.465-.485-.072-.593-.3-1.886-.656-.377-.009-.961.18-.368.018-.4-.036-.368-.081-.323-.225-.375-.419-.377-.692-.135-.943-.287-.224-1.85.036-.629.781-.251.431-.341.35-.4.207-.4.045-.359-.045-.323-.081-.431-.126.323-.575-.09-1.814L3.3 24.5l-2.249-6.45-.745-2.5L0 13.614l.018-.521.225-.943z" class="cls-1" transform="translate(27.787 289.908)"/>
        <path id="CL-LI" d="M5.343.6l1.266.521 2.065-.117.809 1.496 1.608.691 1.042 1.527.036.018 1.22-.036 1.051-.242-.04-.65.054-.35 1.679-1.949 1.046-.656.35.117.934-.07.5-.314L20.466 0h.449l.449.153.287.26.5 1.661-.117.781.9.305.305-.081.359-.26.35-.027.224.171.153.629-.045 1.015.063.314.413.44.611.242.323.234.09.305.009.323-.063.153v.907l.09.7-1.329 2.021-1.06 2.012-.835 2.972-.79 2.218-.1.009-.754-.054-2.317-.233-1.437-1.1-.539-.548-.251-.153-3.58-1.069-.485-.126h-.359l-2.272.18-1.06.916.045.341.054.53-1.958-.35-1.94-.126-1.3-.4-1.76-.718-.44-.665-.736-.907-.233-.162-.38-.151.126-.6L.314 10l-.098-.9-.036-.6.269-.44.476-.269.126-.4-.009-.791-.081-1.14-.269-.36-.099-.3.045-.512 1.526-2.779.35-.449.6-.018.332.278.485.108.44.072.451-.557z" class="cls-1" transform="translate(46.605 231.781)"/>
        <path id="CL-LL" d="M2.874 57.033l-.242.233-.287.027L2 57.248l-.189.045-.252.1-.153.081-.458.377-.108-.018-.2-.117-.44-.7-.081-.153-.072-.171L0 56.521l.036-.287 1.078-.539.153.009 1.087.548.126.117.287.314.108.35zm15.571-18.787l-.027.593-.242-.045-.117-.458-.059-.17-.081-.153-.2-.162-1.194-.629-.171-.072-.413-.09-.18-.126-.35-1 .036-.171.207-.081.3-.036.44-.009.305.072.242.18 1.509 2.353zm-6.008-12.024l-.251.35h-.359l-.323-.234-.26-.081-.2.359.44.485 1.132.4.332-.26.521-.359 1.347-.835 1.257-.171.377.045.889.6-.287 2.245.979 1.536-.207.566-.35.135-.09.377.153.476.862.584.332.081.323.988-.144.62-.162.386-1.338.314-.7-.1-.305.027-.871.467-.287.18-.207.332-.09 1.455.4.422.341.18.207.233-1.383.575-.709-.638.242-.683-.413.126-.335.695.153 1.581 2.406 2.419.62.215.7.5.216.233.18.925-.1.4-.988.162-.487-.047-.422.233-.117.674.4.494.656.53.072.269.44.844.332.467.153.539-.3.251-2.865-.251-.521.207.189 1.464.305.35.359.251.233.629-.26 1.554-.254.107-1.688.386-.449-.341-.341-.332-.332-.108-1.185-.054-1.347-.18L7.418 52l-1.14-.611-.234-.2-.216-.368.925-2.389 1.212-1.482-.18-.566.4-.386.557-1.428.422-4.14-.072-1.221-.242-.9-.225-.189-.318-.22.225-1.464.26-3.134.126-.305.242-.359.26-.332.6-.584.4-1.347.431-2.586-.494-1-.144-.368.009-.341.422-.673 1.491.135.305.683zM14.2 0l3.835.323.754 1.248 1.248.251 2-1.5 2 .745 1.248 2.245 1.751 1.248 2.245 2 2.5 1 1.5-1.751 1-1.5 2-.251 2.326.314-.045.709.018.458-.251.718-.251.359-.269.278-.386.332-.251.431.458 1.329.817 1.787.153.727-.269.943.242.8-.273 3.092-.054.413-.225.476-.2 1.06.072.512.323.781.224 1.985-.539.925-.287.332v.481l.817 1.949.8 1.616.135.44.18 1.006.045.916.359.512.063 1.122-.647.6-1.661.79-.4-.072-.126-.44-.18-.3-.413-.081-.305.162-.269.26-1.176 2.344.269.521.665.575.153.341-.853 2.721-.189.359-.117.377-.054.368.135 1.347.224.9.045.691.063 1.634-.036.467-.109.575-.162.386-.09.341-.045.862.234.584.512.862.323.278.682.3L37 48.6l.359.018.8.081.413.108 1.221.754.081 1.787-.09.332-.243.171-.467-.117-1.284.431-.431 1.078-.072 1.167 1.1.826 1.877 1.778.144 1.132-.162.4-.808.539-.251.1-.269.153v.512l.655.988.736.835-.961-.449-.431.018-1.8.88-.18.709-1.787.2-.1-.692-.234-.476-.422-.539-.377-.26-.575-.054-.269-.117-.973-1.633-.063-.745-.611-.242-.422.3-.548.566-.422.629-.18.7-2.47-.422-.8-.207-.26-.207-.844-.018v-.727l-.2.6-.216-.018-.323-.126-.485-.512-.638.126-.557.386-.054-.611.09-2.065-.853-2.039-.126-.4.44-2.254.269-.314.494-.332.379-.228.3-.171.26-.09.449-.2-.018-1.275-.224-.736.1-.431.512-.952.458-.521.422.018.9.611.036-2.362-.4-.494-.377-.234-.368-.377-.2-.5-.18-1.015-.018-.925.061-2.446.449-1.14.287-.117 1.141.063.368.072.269.35 1 .656.377.108.162-.215-.323-.53-.6-.162-.413-.2-.512-.422-2.1-3.269.62-.736.622-.458 1.877-.6.4.225.368.674-.009.377 1.158 3.367.224.171.18-.314-.108-1.284-.449-2.281-.171-.736-.162-1.257.027-.476.081-.656.09-.458.117-.431.036-.548-.234-.18-.548.009-.44.5-.835.494-1.607-.242-.988-.539-.53-.754.108-.44.683-1.087 1.931-1.967.53.018.431.09 1.32-.314.9-.449.709-.638.227-.274.287-3.4-.463.165-.453 3.035-.287.539-.916.458-1.311.431-.431.009-.3-.126-.512-.4-.377-1.141-.431-.611-.844-1.006-.494-.278-1.176-.3-.979.3-.422.18-.787 1.245.18.673.24.227.18 1-.9.943-.844.638-.431.072-.9-.207-.413-.135-.844.027-.252.108-.62.3-.341.117-.216.009-.817-.521-1.518-.305-.658-.046.2-1.3.575-.871.234-.162.422-.018.422.063.476-.144.835-1.554-.4.377-.26.584-.251.341-.368.117-1.536-.153-.781-.5-1.185-1.446-.027-.629.233-.548-.045-1.141-.153-.656-.44-1.239-.4-.512-.2-.431-.26-1.616-.278-1.895.611-1.841 1.464-3.951.586-.765.521-1.123-.1-.62-.359-.916L14.2 0z" class="cls-1" transform="translate(11.019 333.972)"/>
        <path id="CL-ML" d="M22.54 27.964l-.081-.045-.377-.44-.135-.557-.09-.467-.44-.225-.3.045-.242.18-1.015 1.293-.1.4-.036.341-.368.413-.521-.072-1.266-.7-.26-.26-1.369-1.127-1.069-.323-.8-.314-.467-.3-.314-.305-.162-.4-.323-.7-.835-.135-.305.09-.323.135-.287-.018-.691-.162-.225-.2-.09-.3-.171-.4-.988-1.024-.1.485.027.4L7.9 24.3l-1.571-.045-.323-.108-2.441-1.275-1.85-1.634-.09-.548-.2-.216L0 19.837l.243-.162.638-.593 1.383-1.4.162-.323.108-.494-.027-.575-.307-.745-.539-1.329.036-.44.287-.341.53-.3.88-.745.817-2.065.449-1.3.189-.377L5.388 8l.412-.268.5-.287.727-.709.26-.575.113-.692L7.436 5l.018-.548.018-.449.108-.844.7-1.554.287-.305.252-.384L9.124 0 9.5.153l.233.162.736.907.44.665 1.76.718 1.3.4 1.94.126 1.958.35-.054-.53-.041-.351 1.06-.916 2.272-.18h.359l.485.126 3.583 1.07.251.153.539.548 1.437 1.1 2.317.233.754.054.1-.009-.029.121-.018.593.018.575.054.323-.072.691-.224.377-.9.458-.4.081-.44.018-.298.084-.314.494-.027.4.215.449.225.18 1.41.88.332 2.353-.1 1.554-.189.323.126.584.44.979.4 1.194-.4.341-.341.593-.126.35.054 1.23.144 1.634-.359.952-.18.242-.368.207-.476-.036-1.086.049-1.482 1.67-.171 1.158.278.736-.135.377-3.143 1.14-.368-.054z" class="cls-1" transform="translate(37.495 244.443)"/>
        <path id="CL-AP" d="M18.553 18.984h-1.931l-1.248 1.248-.251 1.5-1.994.251-2-1.5h-3.5l-1.994 1.5-2 1.248-2.056.1.018-.548.153-.332-.036-.566-.656-3.637-.214-.548-.135-2.622.126-.772.359-1.859-.332-.494-.323-.333-.422-.32L0 11.252l.2-.18.3-.162.494-.045L2 10.973l.62.036.287-.018.584-.108L5.3 10.2l.413-.278L6.87 8.7l.3-.341.611-1.239.274-.72.063-.44-.548-2.018-.117-.251-.207-.2-.153-.242.055-.549.144-.359.251-.386.566.063 1.1.09L11.566 0l.162 1.7 1.419 1.257.26.242.359.7.117.368-.036.889.081.467.117.386.189.314 2.012.656.79.135-.018.4-.117.251-.467.287-.26.225-.126.332.171.4.269.278.305.368.207 2.181.18.3.269.359.117.242.09.323-.027.323-.09.7.045.691.054.629.305 1.131.629 1.383.242.494z" class="cls-1" transform="translate(67.793)"/>
        <path id="CL-LR" d="M24.408 20.609l-2.326-.309-2 .251-1 1.5-1.5 1.751-2.5-1.006-2.249-1.996-1.751-1.257L9.833 17.3l-1.993-.75-2 1.5-1.251-.25-.755-1.25L0 16.227l.269-1.563.862-1.042-.063-.97-.135-.44-.332-.4-.17-.362.26-.413.189-.216 2.407-1.176 1.114.2.332-.5-.028-1.963.943-2.416.2-.368.452-1.177.4-1.311-.279-.51.431.126.323.081.359.045.4-.045.4-.207.341-.35.242-.433.629-.781L11.4 0l.287.224.135.943.377.691.377.422.323.224.368.081.4.036.368-.018.961-.18.377.009 1.886.656.593.3.485.072 1.212-.467.323-.18.251-.278.377-.359.323-.162.341-.063 2.039.18.323.108.4.278.35.341.718.5.862.018.269.045.153.4.081.413.036.359-.1.135-.243.844.045 1.67.458 2.1.458 1.589-.422 1.607-1.069.7-.522.421-.341 1.491.341.692.916.943.216-.386.431.3.063.629-.485 1.167-.18.314-.251.072-.3-.287-.269-.027z" class="cls-1" transform="translate(25.166 317.746)"/>
        <path id="CL-BI" d="M32.855 11.338l-.319.077-.505-.337-.337.126-.505.126-.505-.168-.337-.337-.377-.126-.337-.126-.21.295-.253-.042-.421-.253-.084-.337-.421-.336-.335-.295-.379.126v1.008l-.168.337-.042.547-.295-.126-.421.126h-.463l-.379.253-.335-.253-.337-.123-.547-.21-.463.042-.337.168-.211.5-.293.295-.505.209-.547.042h-.379l-.547-.335h-.209l-.169.293h-.252L20 12.341l-.505.335-.882-.21-.463.168v-1.051l.126-.547.421-.21.5-.547-.123-.379-.293-.126-.337-.253h-.505l-.547-.379-.716-1.094-.251.295-.673-.043-.21-.419H15.2l-.21.419-1.85-.168.168-.546 1.135.084-.168-.379.253-.421-.461-.253-.211-.842.084-.377-.168-.631-.716-.758-.716-.126-.291-.583-.293-.3-.379.168-.253-.926-.168-.505.253-.337-.084-.63h-.589l-.169-.586V0l-.06.156-.573 1.537-.486 1.768L9 4.655l-.181.224L8.566 5h-.314l-.395-.1-.3-.3-.457-.2-.2 3.071-.242 2.892-.316 1.229-.188.432-.305.412-.314.244-.53.242-.693.207-.332.053-.261.009-.547.009-1.024-.467-.331-.216-.556-.637-.531.386-.142.36-.481 2.356.135.305.332.3.3.377.244.495.061.6-.153.619-.386.388-.475.61L0 19.1l.224 1.977.789.87.908 1.553.579 1.388.288.844.161.665-.229 2.424-.161.333-.253.268-.2.405.2.844.054.009.253.126.395.216 1.051.7 3.359-3.3.207-.405.089-.314.1-.493-.233-.386-.451-.224-.467-1.266 1.526-2.336.368-.438.143-1.46-.17-.323-.807-.077-.279-.342 1.177-1.468 1.75-.261.538.3.54.351.458.268 1.75.423 1.087-.026.781.916.36.88.789 1.131.584.36.27.107.431.072.458.116.323.163 1.1.942.153.386.412.512.27.189 1.922.323 1.58-.153.377-.107.44.17.412.6v.665l-.054.493-.026.53.054.379.251.951.161.325.458.331.207-.414.17-.4.207-.224 1.131-.538.835-.44.216-.207.2-.547 1.329-.288 2.954-.063.817.135.017-.619-1.238-3.036-.368-.717-.17-.754-.305-.728-.252-.8-.026-.6.081-.53.233-.279.44-.332.189-2.075-.126-.377-.351-.475-.268-.423-.377-1.23.17-.538.449-.521.225-.7.212-1.166z" class="cls-1" transform="translate(25.969 271.301)"/>
        <path id="CL-NU" d="M1.189 0L1 .225l-.253 2.3-.266 3.221L0 7v.184l.168.589h.59l.084.63-.253.337.168.505.253.926.379-.171.293.295.295.588.716.126.716.758.168.631-.084.377.211.842.461.253-.253.421.168.379-1.135-.084-.168.545 1.85.168.21-.419h.337l.21.419.674.042.251-.295.716 1.094.547.379h.505l.337.253.293.126.126.377-.5.547-.421.21-.126.547v1.051l.463-.168.882.211.505-.335.631.167h.253l.168-.293h.209l.547.335h.379l.547-.042.505-.209.29-.296.21-.505.337-.168.463-.042.547.21.337.126.335.253.379-.253h.463l.421-.126.295.126.042-.547.168-.337v-1.004l.379-.126.335.295.421.335.084.337.421.253.253.042.211-.295.337.126.377.126.337.337.505.168.505-.126.337-.126.505.337.319-.077.012-.072-.458-2.219-.486-2.066.63-1.643 1.051-3.089.26-1 .233-.126-.081-.044-.377-.44-.135-.558-.089-.467-.44-.224-.3.046-.242.179-1.012 1.294-.1.405-.035.34-.368.414L20.03 9l-1.266-.7-.261-.26-1.374-1.135-1.068-.323-.8-.316-.467-.3-.314-.305-.161-.395-.324-.7-.835-.135-.305.089-.323.135-.288-.017-.691-.163-.225-.2-.091-.3-.17-.395-.987-1.03-.1.484.026.395-.914 1.033-1.571-.044L7.2 4.31 4.755 3.034 2.9 1.4 2.815.853l-.2-.216L1.189 0z" class="cls-1" transform="translate(36.323 264.301)"/>
    </g>
</svg>
