<svg xmlns="http://www.w3.org/2000/svg" width="14.718" height="14.718" viewBox="0 0 14.718 14.718">
    <defs>
        <style>
            .cls-1{fill:#191a1e}
        </style>
    </defs>
    <path id="copyright" d="M7.359 14.717a7.359 7.359 0 0 1-5.2-12.563 7.359 7.359 0 0 1 10.403 10.408 7.311 7.311 0 0 1-5.2 2.155zm0-13.568a6.209 6.209 0 1 0 6.209 6.209 6.216 6.216 0 0 0-6.209-6.209zm3.029 9.238l-.813-.813a3.133 3.133 0 1 1 0-4.431l.813-.813a4.281 4.281 0 1 0 0 6.058zm0 0" class="cls-1" transform="translate(0 .001)"/>
</svg>
