<svg xmlns="http://www.w3.org/2000/svg" width="173" height="62.25" viewBox="0 0 173 62.25">
    <defs>
        <style>
            .cls-1{fill:#191a1e}
        </style>
    </defs>
    <g id="dani_logo" data-name="dani logo" transform="translate(-106.9 -73.462)">
        <g id="Grupo_1" data-name="Grupo 1" transform="translate(106.9 73.463)">
            <path id="Trazado_1" d="M118.466 111.737a26.389 26.389 0 0 1-2.617 2.786 12.393 12.393 0 0 1-3.124 2.195 5.6 5.6 0 0 1-1.688.507 6.258 6.258 0 0 1-1.773-.084 3.413 3.413 0 0 1-1.435-.844 3.522 3.522 0 0 1-.76-1.351 4.934 4.934 0 0 1-.169-1.6 5.85 5.85 0 0 1 .253-1.688 20.57 20.57 0 0 1 .929-2.7 15.778 15.778 0 0 1 1.435-2.617 14.085 14.085 0 0 1 2.111-2.364 10.2 10.2 0 0 1 2.533-1.688 8.023 8.023 0 0 1 6.247-.084c.507-2.026 1.1-4.221 1.857-6.585a82.15 82.15 0 0 1 2.617-7.26 64.285 64.285 0 0 1 3.377-6.838 25.537 25.537 0 0 1 4.221-5.4 8.3 8.3 0 0 1 1.266-1.013 27.922 27.922 0 0 1 1.6-1.013 7.294 7.294 0 0 1 1.773-.591 3.259 3.259 0 0 1 1.773.253 1.412 1.412 0 0 1 .844 1.435 9.3 9.3 0 0 1-.507 2.617 14.627 14.627 0 0 1-1.266 3.039c-.507 1.1-1.182 2.364-1.857 3.715-.844 1.52-1.688 3.124-2.617 4.728s-1.942 3.292-2.87 4.812c-1.013 1.6-1.942 3.124-2.87 4.559s-1.773 2.786-2.533 3.883c-.76 1.182-1.435 2.111-2.026 2.955-.591.76-.929 1.266-1.1 1.52a55.933 55.933 0 0 0-1.013 6.838 31.331 31.331 0 0 0-.253 5.4 5.284 5.284 0 0 0 1.1 3.292c.675.76 1.773 1.013 3.377.675a14.154 14.154 0 0 0 3.546-1.435 39.794 39.794 0 0 0 4.221-2.533 49.555 49.555 0 0 0 4.39-3.292c1.52-1.182 2.87-2.364 4.221-3.546s2.533-2.279 3.63-3.377 1.942-2.026 2.7-2.786c.253-.253.507-.253.675-.084.253.253.253.422 0 .675a38.421 38.421 0 0 1-2.7 2.87c-1.1 1.1-2.364 2.279-3.715 3.461s-2.786 2.448-4.305 3.63-3.039 2.279-4.474 3.292a66.07 66.07 0 0 1-4.305 2.617 13.852 13.852 0 0 1-3.715 1.435 4.956 4.956 0 0 1-3.883-.507 5.874 5.874 0 0 1-2.364-3.208 12.59 12.59 0 0 1-.675-4.39 37 37 0 0 1-.082-4.311zm1.6-8.527a5.731 5.731 0 0 0-1.688-.591 3.207 3.207 0 0 0-1.773.169 7.891 7.891 0 0 0-3.124 2.111 17.036 17.036 0 0 0-2.448 3.461 9.615 9.615 0 0 0-.76 1.6 19 19 0 0 0-.675 2.026 18.283 18.283 0 0 0-.338 2.111 3.348 3.348 0 0 0 .338 1.688 1.317 1.317 0 0 0 1.1.675 4.158 4.158 0 0 0 1.52-.422 10.111 10.111 0 0 0 1.773-1.1c.591-.507 1.182-1.013 1.688-1.52.591-.591 1.1-1.1 1.6-1.688s.929-1.1 1.351-1.6c.169-1.1.338-2.195.591-3.292.342-1.264.595-2.446.849-3.628zm14.014-26.086a26 26 0 0 0-4.052 5.909 51.472 51.472 0 0 0-3.292 7.26 66.794 66.794 0 0 0-2.533 7.6 292.611 292.611 0 0 0-1.773 6.923c.675-1.013 1.52-2.279 2.533-3.883s2.111-3.292 3.292-5.15 2.364-3.8 3.546-5.825 2.279-3.883 3.292-5.741a135.19 135.19 0 0 1 1.857-3.63q.76-1.646 1.266-3.039a16.419 16.419 0 0 0 .422-1.688 1.162 1.162 0 0 0-.169-1.013.868.868 0 0 0-1.013-.084 4.629 4.629 0 0 0-1.266.675c-.422.338-.844.591-1.266.929a9.408 9.408 0 0 0-.84.757z" class="cls-1" data-name="Trazado 1" transform="translate(-106.9 -73.463)"/>
            <path id="Trazado_2" d="M162.172 110.785a2.853 2.853 0 0 1 1.013.507 1.459 1.459 0 0 1 .507 1.013 15.092 15.092 0 0 0-.084 2.7 5.393 5.393 0 0 0 .507 1.857 2.623 2.623 0 0 0 1.266 1.266 5.458 5.458 0 0 0 1.688.338 7.528 7.528 0 0 0 1.857-.253c.591-.169 1.182-.338 1.688-.507a17.809 17.809 0 0 0 2.87-1.351 29.1 29.1 0 0 0 2.7-1.688c.844-.591 1.6-1.1 2.195-1.6a10.4 10.4 0 0 0 1.351-1.266c.253-.253.422-.338.675-.084.253.169.253.422 0 .675-.338.338-.76.76-1.435 1.351a26.673 26.673 0 0 1-2.279 1.688q-1.266.886-2.786 1.773a16.475 16.475 0 0 1-3.039 1.435 13.049 13.049 0 0 1-1.942.591 16.906 16.906 0 0 1-2.026.338 8.157 8.157 0 0 1-2.026-.084 3.959 3.959 0 0 1-1.857-.76 4.193 4.193 0 0 1-1.857-2.533 9.6 9.6 0 0 1-.253-3.124 9.242 9.242 0 0 1-.844.929 3.225 3.225 0 0 1-.76.76 5.993 5.993 0 0 1-1.182.844 4.049 4.049 0 0 1-1.435.422 1.59 1.59 0 0 1-1.266-.253 1.628 1.628 0 0 1-.844-1.182 2.718 2.718 0 0 1-.084-1.435 4.3 4.3 0 0 1 .591-1.435 8.123 8.123 0 0 1 1.1-1.435 9.217 9.217 0 0 1 1.435-1.1 4.137 4.137 0 0 1 1.6-.591 3.387 3.387 0 0 1 1.6.084 2.853 2.853 0 0 1 1.013.507 1.059 1.059 0 0 1 .507.929c.174.42.089.589-.164.674zm-1.013.338a.463.463 0 0 1 .507-.338c-.084 0-.169-.084-.169-.253q-.127-.507-.507-.507a1.459 1.459 0 0 0-.844.084 3.162 3.162 0 0 0-1.013.591 3.6 3.6 0 0 0-.929 1.013 5.383 5.383 0 0 0-.675 1.182 10.241 10.241 0 0 0-.422 1.182 1.666 1.666 0 0 0 0 .929c.084.169.169.253.338.169a1.122 1.122 0 0 0 .591-.253 4.639 4.639 0 0 0 .76-.591 8.458 8.458 0 0 0 1.1-1.266 19.393 19.393 0 0 0 1.263-1.943z" class="cls-1" data-name="Trazado 2" transform="translate(-114.305 -78.926)"/>
            <path id="Trazado_3" d="M194.666 123.052a3.547 3.547 0 0 1-1.182-2.279 6.82 6.82 0 0 1 0-2.617 20.336 20.336 0 0 1 .591-3.124c.253-1.013.591-2.026.844-3.039a7.247 7.247 0 0 0 .253-1.435 2.6 2.6 0 0 0-.084-1.182.635.635 0 0 0-.591-.422 2.459 2.459 0 0 0-1.351.76 12.147 12.147 0 0 0-1.857 2.111c-.675.929-1.351 1.857-1.942 2.786a78.681 78.681 0 0 1-1.942 2.786 10.266 10.266 0 0 1-1.688 1.942 1.639 1.639 0 0 1-1.351.422 1.367 1.367 0 0 1-1.013-.929 4.09 4.09 0 0 1-.253-1.52 15.164 15.164 0 0 1 .169-1.857 14.7 14.7 0 0 1 .422-1.857c.169-.591.338-1.1.422-1.52a.31.31 0 0 1 .084-.253.761.761 0 0 1 .507-.507.661.661 0 0 1 .675.084 3.913 3.913 0 0 1 .844.844c.253.422.422.76.338 1.013-.253.844-.507 1.773-.675 2.617s-.338 1.773-.507 2.7a18.225 18.225 0 0 0 1.688-2.111c.591-.929 1.266-1.857 1.857-2.786q1.013-1.52 2.026-2.786a7.642 7.642 0 0 1 2.026-2.026 2.656 2.656 0 0 1 1.6-.675 2.1 2.1 0 0 1 1.435.253 4.132 4.132 0 0 1 1.1 1.013 3.569 3.569 0 0 1 .422 1.688 8.541 8.541 0 0 1-.338 2.448c-.253.844-.422 1.688-.675 2.533a13.059 13.059 0 0 0-.507 2.617 9.761 9.761 0 0 0 .084 2.7 1.821 1.821 0 0 0 .76 1.351 2.035 2.035 0 0 0 1.266.338 4.683 4.683 0 0 0 1.435-.253 10.3 10.3 0 0 0 1.435-.591 25.21 25.21 0 0 0 3.124-1.857c1.1-.76 2.195-1.688 3.292-2.617s2.195-1.942 3.292-2.955 2.026-1.942 2.955-2.87c.253-.253.507-.253.675-.084.253.253.169.422-.084.675-.929.929-1.942 1.942-3.039 2.955s-2.195 2.026-3.377 2.955c-1.1.929-2.279 1.857-3.377 2.617a19.118 19.118 0 0 1-3.208 1.942 11.961 11.961 0 0 1-1.52.675 6.576 6.576 0 0 1-1.773.338 5.538 5.538 0 0 1-1.688-.084 4.234 4.234 0 0 1-1.599-.927z" class="cls-1" data-name="Trazado 3" transform="translate(-118.771 -78.868)"/>
            <path id="Trazado_4" d="M220.953 121.2a3.6 3.6 0 0 1-2.87-2.87 8.35 8.35 0 0 1 .084-2.87c.253-1.1.422-2.026.675-2.87 0-.084.084-.084.084-.169a.083.083 0 0 1 .084-.084c.169-.253.338-.422.675-.338a1.726 1.726 0 0 1 .76.422 3.3 3.3 0 0 1 .675.844c.169.338.253.591.169.76q-.253 1.013-.507 2.279a5.176 5.176 0 0 0 0 2.279 1.552 1.552 0 0 0 .929 1.435 3.373 3.373 0 0 0 1.6.169 5.889 5.889 0 0 0 1.857-.591 8.431 8.431 0 0 0 1.52-.76c.844-.507 1.688-1.013 2.617-1.6.844-.591 1.688-1.182 2.448-1.773s1.52-1.182 2.111-1.688c.675-.507 1.182-1.013 1.6-1.351.253-.253.507-.253.675 0 .084.084.084.169.084.338a.439.439 0 0 1-.169.338c-.422.338-.929.844-1.6 1.435s-1.435 1.182-2.195 1.773c-.844.591-1.688 1.182-2.533 1.857-.929.591-1.773 1.1-2.7 1.6-.844.422-1.773.844-2.87 1.266a8.4 8.4 0 0 1-3.203.169z" class="cls-1" data-name="Trazado 4" transform="translate(-124.207 -79.462)"/>
            <path id="Trazado_5" d="M245.664 117.862a23.063 23.063 0 0 0 2.617-1.182 16.238 16.238 0 0 0 2.617-1.52 25.129 25.129 0 0 0 2.448-1.688 21.725 21.725 0 0 0 2.026-1.773c.253-.253.507-.253.675-.084s.169.422-.084.675c-.591.591-1.266 1.182-2.026 1.857q-1.14.886-2.533 1.773c-.929.591-1.857 1.1-2.786 1.6a14.631 14.631 0 0 1-2.7 1.182 11.566 11.566 0 0 1-2.026.591 10.313 10.313 0 0 1-2.195.253 5.878 5.878 0 0 1-2.111-.422 3.1 3.1 0 0 1-1.6-1.351 4.148 4.148 0 0 1-.591-2.87 9.059 9.059 0 0 1 1.1-3.208 11.4 11.4 0 0 1 1.688-2.279 5.416 5.416 0 0 1 1.942-1.351 4.237 4.237 0 0 1 1.013-.169 3.035 3.035 0 0 1 .929.169.893.893 0 0 1 .507.591 1.538 1.538 0 0 1-.253 1.1 5.535 5.535 0 0 1-1.182 1.435 6.829 6.829 0 0 1-2.195 1.266c-.169.338-.338.76-.507 1.182a6.327 6.327 0 0 0-.422 1.351 3.655 3.655 0 0 0-.084 1.351 1.938 1.938 0 0 0 .338 1.182 1.593 1.593 0 0 0 1.1.844 4.611 4.611 0 0 0 1.52.084 8.967 8.967 0 0 0 1.6-.338 2.7 2.7 0 0 0 1.175-.251zm-4.052-6.669a4.292 4.292 0 0 0 1.1-.76 2.051 2.051 0 0 0 .76-1.182 2.251 2.251 0 0 0-1.013.844c-.341.505-.679.844-.848 1.097z" class="cls-1" data-name="Trazado 5" transform="translate(-127.221 -78.827)"/>
            <path id="Trazado_6" d="M258.074 115.935a14.661 14.661 0 0 1-.084-3.377 39.154 39.154 0 0 1 .591-4.052 45.929 45.929 0 0 1 1.351-5.4c.591-1.857 1.182-3.63 1.857-5.319a47.738 47.738 0 0 1 2.111-4.643 18.513 18.513 0 0 1 2.195-3.292 13.365 13.365 0 0 1 1.1-1.1 7.28 7.28 0 0 1 1.52-1.182 4.725 4.725 0 0 1 1.688-.675 2.377 2.377 0 0 1 1.688.338 1.218 1.218 0 0 1 .591.929 4.016 4.016 0 0 1-.253 1.857 48.854 48.854 0 0 1-2.026 4.643 53.522 53.522 0 0 1-2.955 5.15c-1.1 1.773-2.111 3.377-3.208 4.981s-2.111 3.039-2.955 4.221a43.722 43.722 0 0 0-.844 7.176 4.82 4.82 0 0 0 .675 2.786 2.293 2.293 0 0 0 1.688.929 4.241 4.241 0 0 0 2.195-.422 12.369 12.369 0 0 0 2.364-1.182 19.279 19.279 0 0 0 3.292-2.279 32.645 32.645 0 0 0 3.124-2.7c.929-.929 1.857-1.773 2.617-2.617a22.327 22.327 0 0 0 1.688-2.195c.169-.338.338-.422.675-.253l.253.253a.507.507 0 0 1-.084.338 14.063 14.063 0 0 1-1.688 2.279c-.76.929-1.688 1.857-2.617 2.786-1.013.929-2.026 1.857-3.208 2.786a28.021 28.021 0 0 1-3.461 2.364 11.3 11.3 0 0 1-3.124 1.351 6.055 6.055 0 0 1-2.955.253 3.986 3.986 0 0 1-2.364-1.351 4.845 4.845 0 0 1-1.437-3.381zm3.715-9.371c.76-1.1 1.6-2.448 2.533-3.8.929-1.435 1.857-2.87 2.786-4.39s1.773-3.039 2.533-4.474a53.36 53.36 0 0 0 1.857-4.137 2.99 2.99 0 0 0 .253-1.52c-.084-.253-.253-.338-.591-.253a2.384 2.384 0 0 0-.929.591c-.338.338-.675.591-1.013.929a17.227 17.227 0 0 0-2.533 3.63 70.3 70.3 0 0 0-2.111 4.39 33.638 33.638 0 0 0-1.6 4.643c-.51 1.69-.932 3.127-1.185 4.391z" class="cls-1" data-name="Trazado 6" transform="translate(-130.429 -75.55)"/>
            <path id="Trazado_7" d="M288.572 110.785a2.853 2.853 0 0 1 1.013.507 1.459 1.459 0 0 1 .507 1.013 15.09 15.09 0 0 0-.084 2.7 5.392 5.392 0 0 0 .507 1.857 2.623 2.623 0 0 0 1.266 1.266 5.458 5.458 0 0 0 1.688.338 7.528 7.528 0 0 0 1.857-.253c.591-.169 1.182-.338 1.688-.507a17.808 17.808 0 0 0 2.87-1.351 29.1 29.1 0 0 0 2.7-1.688c.844-.591 1.6-1.1 2.195-1.6a10.4 10.4 0 0 0 1.351-1.266c.253-.253.422-.338.675-.084.253.169.253.422 0 .675-.338.338-.76.76-1.435 1.351a26.671 26.671 0 0 1-2.279 1.688q-1.266.886-2.786 1.773a16.475 16.475 0 0 1-3.039 1.435 13.05 13.05 0 0 1-1.942.591 16.906 16.906 0 0 1-2.026.338 8.157 8.157 0 0 1-2.026-.084 3.959 3.959 0 0 1-1.857-.76 4.193 4.193 0 0 1-1.857-2.533 9.6 9.6 0 0 1-.253-3.124 9.239 9.239 0 0 1-.844.929 3.224 3.224 0 0 1-.76.76 5.992 5.992 0 0 1-1.182.844 4.048 4.048 0 0 1-1.435.422 1.59 1.59 0 0 1-1.266-.253 1.628 1.628 0 0 1-.844-1.182 2.717 2.717 0 0 1-.084-1.435 4.3 4.3 0 0 1 .591-1.435 8.122 8.122 0 0 1 1.1-1.435 9.215 9.215 0 0 1 1.435-1.1 4.137 4.137 0 0 1 1.6-.591 3.387 3.387 0 0 1 1.6.084 2.853 2.853 0 0 1 1.013.507 1.059 1.059 0 0 1 .507.929c.174.42.089.589-.164.674zm-1.013.338a.463.463 0 0 1 .507-.338c-.084 0-.169-.084-.169-.253q-.127-.507-.507-.507a1.459 1.459 0 0 0-.844.084 3.162 3.162 0 0 0-1.013.591 3.6 3.6 0 0 0-.929 1.013 5.383 5.383 0 0 0-.675 1.182 10.235 10.235 0 0 0-.422 1.182 1.665 1.665 0 0 0 0 .929c.084.169.169.253.338.169a1.122 1.122 0 0 0 .591-.253 4.639 4.639 0 0 0 .76-.591 8.457 8.457 0 0 0 1.1-1.266 19.391 19.391 0 0 0 1.263-1.943z" class="cls-1" data-name="Trazado 7" transform="translate(-133.997 -78.926)"/>
        </g>
        <g id="Grupo_2" data-name="Grupo 2" transform="translate(147.929 129.719)">
            <path id="Trazado_8" d="M157.526 145.113H155.5V144.1h2.026z" class="cls-1" data-name="Trazado 8" transform="translate(-155.5 -140.723)"/>
            <path id="Trazado_9" d="M168.577 141.62a.464.464 0 0 0-.422-.253c-.169 0-.338-.084-.507-.084h-.253c-.084 0-.169.084-.253.084s-.169.084-.253.169a.31.31 0 0 0-.084.253.645.645 0 0 0 .169.422 2.811 2.811 0 0 0 .507.253 1.59 1.59 0 0 0 .675.169c.253.084.422.169.675.253a1.433 1.433 0 0 1 .507.507 1.265 1.265 0 0 1 .169.844 2.5 2.5 0 0 1-.169.844 1.135 1.135 0 0 1-.507.591 1.591 1.591 0 0 1-.76.338 2.872 2.872 0 0 1-.844.084 4.278 4.278 0 0 1-1.1-.169 2.851 2.851 0 0 1-.929-.591l.929-1.013a2.238 2.238 0 0 0 .507.422 1.565 1.565 0 0 0 .591.169h.338c.084 0 .169-.084.253-.084.084-.084.169-.084.169-.169a.31.31 0 0 0 .084-.253.645.645 0 0 0-.169-.422l-.507-.253a5.816 5.816 0 0 0-.675-.253c-.253-.084-.422-.169-.675-.253s-.338-.253-.507-.507c-.169-.169-.169-.422-.169-.76a2.5 2.5 0 0 1 .169-.844 1.135 1.135 0 0 1 .507-.591 1.7 1.7 0 0 1 .675-.338 2.6 2.6 0 0 1 .844-.084 3.035 3.035 0 0 1 .929.169 2.249 2.249 0 0 1 .844.507z" class="cls-1" data-name="Trazado 9" transform="translate(-157.011 -140.1)"/>
            <path id="Trazado_10" d="M180.233 140.2h1.1l2.533 5.825h-1.435l-.507-1.266h-2.279l-.507 1.266H177.7zm.507 1.773l-.675 1.857h1.435z" class="cls-1" data-name="Trazado 10" transform="translate(-158.959 -140.116)"/>
            <path id="Trazado_11" d="M192.784 140.2h1.266v4.643h2.364v1.182H192.7V140.2z" class="cls-1" data-name="Trazado 11" transform="translate(-161.295 -140.116)"/>
            <path id="Trazado_12" d="M205 140.2h3.968v1.182h-2.7v1.1h2.532v1.182h-2.533v1.182h2.87v1.182H205z" class="cls-1" data-name="Trazado 12" transform="translate(-163.212 -140.116)"/>
            <path id="Trazado_13" d="M218.1 140.2h2.279a2.6 2.6 0 0 1 .844.084 5.816 5.816 0 0 1 .675.253l.507.507a2.5 2.5 0 0 1 .169.844 1.346 1.346 0 0 1-.338 1.013 1.774 1.774 0 0 1-.929.591l1.52 2.448h-1.52l-1.266-2.364h-.675v2.364H218.1zm1.351 2.448h1.1c.169 0 .253 0 .338-.084.084 0 .169-.084.253-.169a.508.508 0 0 0 .084-.338c0-.169 0-.253-.084-.338s-.169-.169-.253-.169c-.084-.084-.169-.084-.338-.084h-1.182v1.182z" class="cls-1" data-name="Trazado 13" transform="translate(-165.252 -140.116)"/>
            <path id="Trazado_14" d="M231.5 140.2h1.942l1.351 3.8 1.351-3.8h1.942v5.825h-1.266v-4.474l-1.52 4.474h-1.013l-1.52-4.474v4.474H231.5z" class="cls-1" data-name="Trazado 14" transform="translate(-167.34 -140.116)"/>
            <path id="Trazado_15" d="M247.7 140.2h1.266v5.825H247.7z" class="cls-1" data-name="Trazado 15" transform="translate(-169.864 -140.116)"/>
            <path id="Trazado_16" d="M259.226 145.113H257.2V144.1h2.026z" class="cls-1" data-name="Trazado 16" transform="translate(-171.344 -140.723)"/>
        </g>
        <g id="Grupo_3" data-name="Grupo 3" transform="translate(201.874 99.58)">
            <path id="Trazado_17" d="M220.413 108.368a4.04 4.04 0 0 1-1.013-2.279 2.112 2.112 0 0 1 .338-1.1 1.477 1.477 0 0 1 1.182-.591 1.59 1.59 0 0 1 .675.169.887.887 0 0 1 .422.76l.084.253s.084 0 .084-.253c.084-.338.253-.675.507-.76a1.59 1.59 0 0 1 .675-.169 1.629 1.629 0 0 1 .844.253 1.545 1.545 0 0 1 .591 1.435 2.358 2.358 0 0 1-.422 1.435 8.494 8.494 0 0 1-1.435 1.857c-.675.76-.675.76-.844.929-1.101-1.179-1.181-1.348-1.688-1.939z" class="cls-1" data-name="Trazado 17" transform="translate(-219.4 -104.4)"/>
        </g>
    </g>
</svg>
