<svg xmlns="http://www.w3.org/2000/svg" width="204.925" height="73.737" viewBox="0 0 204.925 73.737">
    <defs>
        <style>
            .cls-1{fill:#747374}
        </style>
    </defs>
    <g id="dani_logo" data-name="dani logo" transform="translate(-106.9 -73.463)">
        <g id="Grupo_1" data-name="Grupo 1">
            <path id="Trazado_1" d="M120.6 118.8a31.258 31.258 0 0 1-3.1 3.3 14.68 14.68 0 0 1-3.7 2.6 6.637 6.637 0 0 1-2 .6 7.412 7.412 0 0 1-2.1-.1 4.043 4.043 0 0 1-1.7-1 4.172 4.172 0 0 1-.9-1.6 5.845 5.845 0 0 1-.2-1.9 6.929 6.929 0 0 1 .3-2 24.367 24.367 0 0 1 1.1-3.2 18.689 18.689 0 0 1 1.7-3.1 16.685 16.685 0 0 1 2.5-2.8 12.086 12.086 0 0 1 3-2 9.5 9.5 0 0 1 7.4-.1c.6-2.4 1.3-5 2.2-7.8.9-2.9 1.9-5.7 3.1-8.6a76.149 76.149 0 0 1 4-8.1 30.249 30.249 0 0 1 5-6.4 9.831 9.831 0 0 1 1.5-1.2c.6-.4 1.2-.8 1.9-1.2a8.64 8.64 0 0 1 2.1-.7 3.861 3.861 0 0 1 2.1.3 1.673 1.673 0 0 1 1 1.7 11.018 11.018 0 0 1-.6 3.1 17.327 17.327 0 0 1-1.5 3.6c-.6 1.3-1.4 2.8-2.2 4.4-1 1.8-2 3.7-3.1 5.6s-2.3 3.9-3.4 5.7c-1.2 1.9-2.3 3.7-3.4 5.4s-2.1 3.3-3 4.6c-.9 1.4-1.7 2.5-2.4 3.5-.7.9-1.1 1.5-1.3 1.8a66.257 66.257 0 0 0-1.2 8.1 37.112 37.112 0 0 0-.3 6.4 6.259 6.259 0 0 0 1.3 3.9c.8.9 2.1 1.2 4 .8a16.766 16.766 0 0 0 4.2-1.7 47.138 47.138 0 0 0 5-3 58.7 58.7 0 0 0 5.2-3.9c1.8-1.4 3.4-2.8 5-4.2s3-2.7 4.3-4 2.3-2.4 3.2-3.3c.3-.3.6-.3.8-.1.3.3.3.5 0 .8a45.507 45.507 0 0 1-3.2 3.4c-1.3 1.3-2.8 2.7-4.4 4.1s-3.3 2.9-5.1 4.3-3.6 2.7-5.3 3.9c-1.8 1.2-3.5 2.2-5.1 3.1a16.409 16.409 0 0 1-4.4 1.7 5.871 5.871 0 0 1-4.6-.6 6.958 6.958 0 0 1-2.8-3.8 14.913 14.913 0 0 1-.8-5.2 43.832 43.832 0 0 1-.1-5.1zm1.9-10.1a6.788 6.788 0 0 0-2-.7 3.8 3.8 0 0 0-2.1.2 9.347 9.347 0 0 0-3.7 2.5 20.18 20.18 0 0 0-2.9 4.1 11.389 11.389 0 0 0-.9 1.9 22.5 22.5 0 0 0-.8 2.4 21.657 21.657 0 0 0-.4 2.5 3.966 3.966 0 0 0 .4 2 1.561 1.561 0 0 0 1.3.8 4.925 4.925 0 0 0 1.8-.5 11.977 11.977 0 0 0 2.1-1.3c.7-.6 1.4-1.2 2-1.8.7-.7 1.3-1.3 1.9-2s1.1-1.3 1.6-1.9c.2-1.3.4-2.6.7-3.9.4-1.5.7-2.9 1-4.3zm16.6-30.9a30.8 30.8 0 0 0-4.8 7 60.97 60.97 0 0 0-3.9 8.6 79.121 79.121 0 0 0-3 9c-.8 3-1.5 5.7-2.1 8.2.8-1.2 1.8-2.7 3-4.6s2.5-3.9 3.9-6.1 2.8-4.5 4.2-6.9 2.7-4.6 3.9-6.8c.8-1.6 1.5-3 2.2-4.3q.9-1.95 1.5-3.6a19.448 19.448 0 0 0 .5-2 1.376 1.376 0 0 0-.2-1.2 1.028 1.028 0 0 0-1.2-.1 5.483 5.483 0 0 0-1.5.8c-.5.4-1 .7-1.5 1.1a11.147 11.147 0 0 0-1 .9z" class="cls-1" data-name="Trazado 1"/>
            <path id="Trazado_2" d="M163.6 111.2a3.379 3.379 0 0 1 1.2.6 1.729 1.729 0 0 1 .6 1.2 17.876 17.876 0 0 0-.1 3.2 6.388 6.388 0 0 0 .6 2.2 3.107 3.107 0 0 0 1.5 1.5 6.465 6.465 0 0 0 2 .4 8.918 8.918 0 0 0 2.2-.3c.7-.2 1.4-.4 2-.6a21.1 21.1 0 0 0 3.4-1.6 34.47 34.47 0 0 0 3.2-2c1-.7 1.9-1.3 2.6-1.9a12.314 12.314 0 0 0 1.6-1.5c.3-.3.5-.4.8-.1.3.2.3.5 0 .8-.4.4-.9.9-1.7 1.6a31.6 31.6 0 0 1-2.7 2q-1.5 1.05-3.3 2.1a19.515 19.515 0 0 1-3.6 1.7 15.456 15.456 0 0 1-2.3.7 20.024 20.024 0 0 1-2.4.4 9.662 9.662 0 0 1-2.4-.1 4.69 4.69 0 0 1-2.2-.9 4.967 4.967 0 0 1-2.2-3 11.366 11.366 0 0 1-.3-3.7 10.948 10.948 0 0 1-1 1.1 3.819 3.819 0 0 1-.9.9 7.1 7.1 0 0 1-1.4 1 4.8 4.8 0 0 1-1.7.5 1.883 1.883 0 0 1-1.5-.3 1.928 1.928 0 0 1-1-1.4 3.219 3.219 0 0 1-.1-1.7 5.094 5.094 0 0 1 .7-1.7 9.622 9.622 0 0 1 1.3-1.7 10.917 10.917 0 0 1 1.7-1.3 4.9 4.9 0 0 1 1.9-.7 4.011 4.011 0 0 1 1.9.1 3.379 3.379 0 0 1 1.2.6 1.255 1.255 0 0 1 .6 1.1c.2.5.1.7-.2.8zm-1.2.4a.548.548 0 0 1 .6-.4c-.1 0-.2-.1-.2-.3q-.15-.6-.6-.6a1.729 1.729 0 0 0-1 .1 3.746 3.746 0 0 0-1.2.7 4.263 4.263 0 0 0-1.1 1.2 6.376 6.376 0 0 0-.8 1.4 12.131 12.131 0 0 0-.5 1.4 1.973 1.973 0 0 0 0 1.1c.1.2.2.3.4.2a1.329 1.329 0 0 0 .7-.3 5.5 5.5 0 0 0 .9-.7 10.02 10.02 0 0 0 1.3-1.5 22.973 22.973 0 0 0 1.5-2.3z" class="cls-1" data-name="Trazado 2"/>
            <path id="Trazado_3" d="M196.8 125.8a4.2 4.2 0 0 1-1.4-2.7 8.079 8.079 0 0 1 0-3.1 24.088 24.088 0 0 1 .7-3.7c.3-1.2.7-2.4 1-3.6a8.584 8.584 0 0 0 .3-1.7 3.083 3.083 0 0 0-.1-1.4.752.752 0 0 0-.7-.5 2.913 2.913 0 0 0-1.6.9 14.389 14.389 0 0 0-2.2 2.5c-.8 1.1-1.6 2.2-2.3 3.3-.8 1.2-1.5 2.2-2.3 3.3a12.16 12.16 0 0 1-2 2.3 1.941 1.941 0 0 1-1.6.5 1.619 1.619 0 0 1-1.2-1.1 4.844 4.844 0 0 1-.3-1.8 17.961 17.961 0 0 1 .2-2.2 17.418 17.418 0 0 1 .5-2.2c.2-.7.4-1.3.5-1.8a.367.367 0 0 1 .1-.3.9.9 0 0 1 .6-.6.783.783 0 0 1 .8.1 4.635 4.635 0 0 1 1 1c.3.5.5.9.4 1.2-.3 1-.6 2.1-.8 3.1s-.4 2.1-.6 3.2a21.588 21.588 0 0 0 2-2.5c.7-1.1 1.5-2.2 2.2-3.3q1.2-1.8 2.4-3.3a9.053 9.053 0 0 1 2.4-2.4 3.146 3.146 0 0 1 1.9-.8 2.492 2.492 0 0 1 1.7.3 4.895 4.895 0 0 1 1.3 1.2 4.228 4.228 0 0 1 .5 2 10.116 10.116 0 0 1-.4 2.9c-.3 1-.5 2-.8 3a15.469 15.469 0 0 0-.6 3.1 11.562 11.562 0 0 0 .1 3.2 2.157 2.157 0 0 0 .9 1.6 2.41 2.41 0 0 0 1.5.4 5.547 5.547 0 0 0 1.7-.3 12.2 12.2 0 0 0 1.7-.7 29.863 29.863 0 0 0 3.7-2.2c1.3-.9 2.6-2 3.9-3.1s2.6-2.3 3.9-3.5 2.4-2.3 3.5-3.4c.3-.3.6-.3.8-.1.3.3.2.5-.1.8-1.1 1.1-2.3 2.3-3.6 3.5s-2.6 2.4-4 3.5c-1.3 1.1-2.7 2.2-4 3.1a22.645 22.645 0 0 1-3.8 2.3 14.167 14.167 0 0 1-1.8.8 7.789 7.789 0 0 1-2.1.4 6.56 6.56 0 0 1-2-.1 5.015 5.015 0 0 1-1.9-1.1z" class="cls-1" data-name="Trazado 3"/>
            <path id="Trazado_4" d="M221.5 122.9a4.262 4.262 0 0 1-3.4-3.4 9.891 9.891 0 0 1 .1-3.4c.3-1.3.5-2.4.8-3.4 0-.1.1-.1.1-.2a.1.1 0 0 1 .1-.1c.2-.3.4-.5.8-.4a2.044 2.044 0 0 1 .9.5 3.915 3.915 0 0 1 .8 1c.2.4.3.7.2.9q-.3 1.2-.6 2.7a6.132 6.132 0 0 0 0 2.7 1.839 1.839 0 0 0 1.1 1.7 4 4 0 0 0 1.9.2 6.975 6.975 0 0 0 2.2-.7 9.988 9.988 0 0 0 1.8-.9c1-.6 2-1.2 3.1-1.9 1-.7 2-1.4 2.9-2.1s1.8-1.4 2.5-2c.8-.6 1.4-1.2 1.9-1.6.3-.3.6-.3.8 0 .1.1.1.2.1.4a.52.52 0 0 1-.2.4c-.5.4-1.1 1-1.9 1.7s-1.7 1.4-2.6 2.1c-1 .7-2 1.4-3 2.2-1.1.7-2.1 1.3-3.2 1.9-1 .5-2.1 1-3.4 1.5a9.947 9.947 0 0 1-3.8.2z" class="cls-1" data-name="Trazado 4"/>
            <path id="Trazado_5" d="M247.2 119.7a27.318 27.318 0 0 0 3.1-1.4 19.234 19.234 0 0 0 3.1-1.8 29.767 29.767 0 0 0 2.9-2 25.731 25.731 0 0 0 2.4-2.1c.3-.3.6-.3.8-.1s.2.5-.1.8c-.7.7-1.5 1.4-2.4 2.2q-1.35 1.05-3 2.1c-1.1.7-2.2 1.3-3.3 1.9a17.331 17.331 0 0 1-3.2 1.4 13.7 13.7 0 0 1-2.4.7 12.216 12.216 0 0 1-2.6.3 6.963 6.963 0 0 1-2.5-.5 3.678 3.678 0 0 1-1.9-1.6 4.913 4.913 0 0 1-.7-3.4 10.731 10.731 0 0 1 1.3-3.8 13.5 13.5 0 0 1 2-2.7 6.416 6.416 0 0 1 2.3-1.6 5.019 5.019 0 0 1 1.2-.2 3.6 3.6 0 0 1 1.1.2 1.057 1.057 0 0 1 .6.7 1.822 1.822 0 0 1-.3 1.3 6.556 6.556 0 0 1-1.4 1.7 8.089 8.089 0 0 1-2.6 1.5c-.2.4-.4.9-.6 1.4a7.494 7.494 0 0 0-.5 1.6 4.329 4.329 0 0 0-.1 1.6 2.3 2.3 0 0 0 .4 1.4 1.887 1.887 0 0 0 1.3 1 5.462 5.462 0 0 0 1.8.1 10.621 10.621 0 0 0 1.9-.4 3.194 3.194 0 0 0 1.4-.3zm-4.8-7.9a5.084 5.084 0 0 0 1.3-.9 2.429 2.429 0 0 0 .9-1.4 2.666 2.666 0 0 0-1.2 1c-.4.6-.8 1-1 1.3z" class="cls-1" data-name="Trazado 5"/>
            <path id="Trazado_6" d="M258.1 121.3a17.365 17.365 0 0 1-.1-4 46.37 46.37 0 0 1 .7-4.8 54.4 54.4 0 0 1 1.6-6.4c.7-2.2 1.4-4.3 2.2-6.3a56.534 56.534 0 0 1 2.5-5.5 21.927 21.927 0 0 1 2.6-3.9 15.825 15.825 0 0 1 1.3-1.3 8.622 8.622 0 0 1 1.8-1.4 5.6 5.6 0 0 1 2-.8 2.815 2.815 0 0 1 2 .4 1.442 1.442 0 0 1 .7 1.1 4.757 4.757 0 0 1-.3 2.2 57.878 57.878 0 0 1-2.4 5.5 63.394 63.394 0 0 1-3.5 6.1c-1.3 2.1-2.5 4-3.8 5.9s-2.5 3.6-3.5 5a51.79 51.79 0 0 0-1 8.5 5.71 5.71 0 0 0 .8 3.3 2.716 2.716 0 0 0 2 1.1 5.024 5.024 0 0 0 2.6-.5 14.651 14.651 0 0 0 2.8-1.4 22.837 22.837 0 0 0 3.9-2.7 38.669 38.669 0 0 0 3.7-3.2c1.1-1.1 2.2-2.1 3.1-3.1a26.442 26.442 0 0 0 2-2.6c.2-.4.4-.5.8-.3l.3.3a.6.6 0 0 1-.1.4 16.659 16.659 0 0 1-2 2.7c-.9 1.1-2 2.2-3.1 3.3-1.2 1.1-2.4 2.2-3.8 3.3a33.192 33.192 0 0 1-4.1 2.8 13.388 13.388 0 0 1-3.7 1.6 7.172 7.172 0 0 1-3.5.3 4.722 4.722 0 0 1-2.8-1.6 5.739 5.739 0 0 1-1.7-4zm4.4-11.1c.9-1.3 1.9-2.9 3-4.5 1.1-1.7 2.2-3.4 3.3-5.2s2.1-3.6 3-5.3c.9-1.8 1.6-3.4 2.2-4.9a3.541 3.541 0 0 0 .3-1.8c-.1-.3-.3-.4-.7-.3a2.824 2.824 0 0 0-1.1.7c-.4.4-.8.7-1.2 1.1a20.405 20.405 0 0 0-3 4.3c-.9 1.7-1.7 3.4-2.5 5.2a39.852 39.852 0 0 0-1.9 5.5c-.6 2-1.1 3.7-1.4 5.2z" class="cls-1" data-name="Trazado 6"/>
            <path id="Trazado_7" d="M290 111.2a3.38 3.38 0 0 1 1.2.6 1.729 1.729 0 0 1 .6 1.2 17.875 17.875 0 0 0-.1 3.2 6.388 6.388 0 0 0 .6 2.2 3.107 3.107 0 0 0 1.5 1.5 6.465 6.465 0 0 0 2 .4 8.918 8.918 0 0 0 2.2-.3c.7-.2 1.4-.4 2-.6a21.1 21.1 0 0 0 3.4-1.6 34.47 34.47 0 0 0 3.2-2c1-.7 1.9-1.3 2.6-1.9a12.314 12.314 0 0 0 1.6-1.5c.3-.3.5-.4.8-.1.3.2.3.5 0 .8-.4.4-.9.9-1.7 1.6a31.593 31.593 0 0 1-2.7 2q-1.5 1.05-3.3 2.1a19.515 19.515 0 0 1-3.6 1.7 15.457 15.457 0 0 1-2.3.7 20.024 20.024 0 0 1-2.4.4 9.663 9.663 0 0 1-2.4-.1 4.69 4.69 0 0 1-2.2-.9 4.967 4.967 0 0 1-2.2-3 11.366 11.366 0 0 1-.3-3.7 10.948 10.948 0 0 1-1 1.1 3.819 3.819 0 0 1-.9.9 7.1 7.1 0 0 1-1.4 1 4.8 4.8 0 0 1-1.7.5 1.883 1.883 0 0 1-1.5-.3 1.928 1.928 0 0 1-1-1.4 3.219 3.219 0 0 1-.1-1.7 5.093 5.093 0 0 1 .7-1.7 9.621 9.621 0 0 1 1.3-1.7 10.916 10.916 0 0 1 1.7-1.3 4.9 4.9 0 0 1 1.9-.7 4.011 4.011 0 0 1 1.9.1 3.38 3.38 0 0 1 1.2.6 1.255 1.255 0 0 1 .6 1.1c.2.5.1.7-.2.8zm-1.2.4a.548.548 0 0 1 .6-.4c-.1 0-.2-.1-.2-.3q-.15-.6-.6-.6a1.729 1.729 0 0 0-1 .1 3.746 3.746 0 0 0-1.2.7 4.263 4.263 0 0 0-1.1 1.2 6.376 6.376 0 0 0-.8 1.4 12.128 12.128 0 0 0-.5 1.4 1.973 1.973 0 0 0 0 1.1c.1.2.2.3.4.2a1.329 1.329 0 0 0 .7-.3 5.5 5.5 0 0 0 .9-.7 10.019 10.019 0 0 0 1.3-1.5 22.97 22.97 0 0 0 1.5-2.3z" class="cls-1" data-name="Trazado 7"/>
        </g>
        <g id="Grupo_2" data-name="Grupo 2">
            <path id="Trazado_8" d="M157.9 145.3h-2.4v-1.2h2.4z" class="cls-1" data-name="Trazado 8"/>
            <path id="Trazado_9" d="M169.2 141.9a.55.55 0 0 0-.5-.3c-.2 0-.4-.1-.6-.1h-.3c-.1 0-.2.1-.3.1s-.2.1-.3.2a.367.367 0 0 0-.1.3.764.764 0 0 0 .2.5 3.328 3.328 0 0 0 .6.3 1.884 1.884 0 0 0 .8.2c.3.1.5.2.8.3a1.7 1.7 0 0 1 .6.6 1.5 1.5 0 0 1 .2 1 2.959 2.959 0 0 1-.2 1 1.344 1.344 0 0 1-.6.7 1.884 1.884 0 0 1-.9.4 3.4 3.4 0 0 1-1 .1 5.067 5.067 0 0 1-1.3-.2 3.378 3.378 0 0 1-1.1-.7l1.1-1.2a2.651 2.651 0 0 0 .6.5 1.854 1.854 0 0 0 .7.2h.4c.1 0 .2-.1.3-.1.1-.1.2-.1.2-.2a.367.367 0 0 0 .1-.3.764.764 0 0 0-.2-.5l-.6-.3a6.891 6.891 0 0 0-.8-.3c-.3-.1-.5-.2-.8-.3s-.4-.3-.6-.6c-.2-.2-.2-.5-.2-.9a2.959 2.959 0 0 1 .2-1 1.344 1.344 0 0 1 .6-.7 2.01 2.01 0 0 1 .8-.4 3.083 3.083 0 0 1 1-.1 3.6 3.6 0 0 1 1.1.2 2.664 2.664 0 0 1 1 .6z" class="cls-1" data-name="Trazado 9"/>
            <path id="Trazado_10" d="M180.7 140.2h1.3l3 6.9h-1.7l-.6-1.5H180l-.6 1.5h-1.7zm.6 2.1l-.8 2.2h1.7z" class="cls-1" data-name="Trazado 10"/>
            <path id="Trazado_11" d="M192.8 140.2h1.5v5.5h2.8v1.4h-4.4v-6.9z" class="cls-1" data-name="Trazado 11"/>
            <path id="Trazado_12" d="M205 140.2h4.7v1.4h-3.2v1.3h3v1.4h-3v1.4h3.4v1.4H205z" class="cls-1" data-name="Trazado 12"/>
            <path id="Trazado_13" d="M218.1 140.2h2.7a3.083 3.083 0 0 1 1 .1 6.89 6.89 0 0 1 .8.3l.6.6a2.958 2.958 0 0 1 .2 1 1.594 1.594 0 0 1-.4 1.2 2.1 2.1 0 0 1-1.1.7l1.8 2.9h-1.8l-1.5-2.8h-.8v2.8h-1.5zm1.6 2.9h1.3c.2 0 .3 0 .4-.1.1 0 .2-.1.3-.2a.6.6 0 0 0 .1-.4c0-.2 0-.3-.1-.4s-.2-.2-.3-.2c-.1-.1-.2-.1-.4-.1h-1.4v1.4z" class="cls-1" data-name="Trazado 13"/>
            <path id="Trazado_14" d="M231.5 140.2h2.3l1.6 4.5 1.6-4.5h2.3v6.9h-1.5v-5.3l-1.8 5.3h-1.2l-1.8-5.3v5.3h-1.5v-6.9z" class="cls-1" data-name="Trazado 14"/>
            <path id="Trazado_15" d="M247.7 140.2h1.5v6.9h-1.5z" class="cls-1" data-name="Trazado 15"/>
            <path id="Trazado_16" d="M259.6 145.3h-2.4v-1.2h2.4z" class="cls-1" data-name="Trazado 16"/>
        </g>
        <g id="Grupo_3" data-name="Grupo 3">
            <path id="Trazado_17" d="M220.6 109.1a4.786 4.786 0 0 1-1.2-2.7 2.5 2.5 0 0 1 .4-1.3 1.75 1.75 0 0 1 1.4-.7 1.884 1.884 0 0 1 .8.2 1.05 1.05 0 0 1 .5.9l.1.3s.1 0 .1-.3c.1-.4.3-.8.6-.9a1.884 1.884 0 0 1 .8-.2 1.929 1.929 0 0 1 1 .3 1.83 1.83 0 0 1 .7 1.7 2.794 2.794 0 0 1-.5 1.7 10.061 10.061 0 0 1-1.7 2.2c-.8.9-.8.9-1 1.1-1.3-1.4-1.4-1.6-2-2.3z" class="cls-1" data-name="Trazado 17"/>
        </g>
    </g>
</svg>
