<svg xmlns="http://www.w3.org/2000/svg" id="github_1_" width="27" height="27" data-name="github (1)" viewBox="0 0 27 27">
    <defs>
        <style>
            .cls-1{fill:#ffffff}
        </style>
    </defs>
    <path id="Trazado_22" d="M13.5 0A13.5 13.5 0 1 0 27 13.5 13.5 13.5 0 0 0 13.5 0zm3.782 23.784c-.078-1.056-.165-2.365-.17-2.895a2.561 2.561 0 0 0-1.06-2.1c3.9-.327 5.754-2.481 5.888-5.329a5.332 5.332 0 0 0-1.678-4.2 23.068 23.068 0 0 0-.116-3.331c-.879-.253-2.929.829-3.5 1.293a10.9 10.9 0 0 0-5.963 0 5.724 5.724 0 0 0-3.515-1.3 4.2 4.2 0 0 0-.118 3.329c-.94.859-2.251 1.916-1.9 4.131.571 3.248 2.856 5 6.535 5.428a1.191 1.191 0 0 0-.983 1c-2.471 1.019-3.177-.629-3.489-1.059-1.037-1.283-1.968-.911-2.025-.891A.162.162 0 0 0 5.1 18c.052.277.617.558.645.58a4.8 4.8 0 0 1 1.223 1.894c1.1 1.8 3.649 1.056 3.674 1.072 0 .158-.018 1.486-.033 2.519a10.971 10.971 0 1 1 6.675-.285z" class="cls-1" data-name="Trazado 22"/>
</svg>
