<svg xmlns="http://www.w3.org/2000/svg" width="26.855" height="26.855" viewBox="0 0 26.855 26.855">
    <defs>
        <style>
            .cls-1{fill:#ffffff}
        </style>
    </defs>
    <path id="icons8-instagram" d="M12.9 5A7.927 7.927 0 0 0 5 12.9v11.059a7.927 7.927 0 0 0 7.9 7.9h11.059a7.927 7.927 0 0 0 7.9-7.9V12.9a7.927 7.927 0 0 0-7.9-7.9zm0 2.441h11.059a5.448 5.448 0 0 1 5.454 5.459v11.059a5.448 5.448 0 0 1-5.455 5.455H12.9a5.448 5.448 0 0 1-5.455-5.455V12.9A5.448 5.448 0 0 1 12.9 7.441zm12.741 2.67a1.106 1.106 0 1 0 1.106 1.106 1.1 1.1 0 0 0-1.11-1.105zm-7.21.992a7.324 7.324 0 1 0 7.324 7.324 7.344 7.344 0 0 0-7.328-7.327zm0 2.441a4.883 4.883 0 1 1-4.883 4.883 4.862 4.862 0 0 1 4.879-4.882z" class="cls-1" transform="translate(-5 -5)"/>
</svg>
