<svg xmlns="http://www.w3.org/2000/svg" width="26.855" height="26.855" viewBox="0 0 26.855 26.855">
    <defs>
        <style>
            .cls-1{fill:#191a1e}
        </style>
    </defs>
    <path id="linkedin" d="M8.393 22.187H4.721V10.333h3.672zm.366-15.63a2.15 2.15 0 1 0-2.149 2.15 2.151 2.151 0 0 0 2.149-2.151zm13.375 9.109c0-3.182-.672-5.542-4.389-5.542a3.81 3.81 0 0 0-3.475 1.822v-1.613H10.7v11.854h3.567V16.3c0-1.541.392-3.035 2.3-3.035 1.885 0 1.946 1.763 1.946 3.132v5.788h3.619zm4.721 8.043V3.147A3.15 3.15 0 0 0 23.708 0H3.147A3.15 3.15 0 0 0 0 3.147v20.561a3.15 3.15 0 0 0 3.147 3.147h20.561a3.15 3.15 0 0 0 3.147-3.147zM23.708 2.1a1.05 1.05 0 0 1 1.049 1.049v20.559a1.05 1.05 0 0 1-1.049 1.049H3.147A1.05 1.05 0 0 1 2.1 23.708V3.147A1.05 1.05 0 0 1 3.147 2.1zm0 0" class="cls-1"/>
</svg>
